<svg height="140.02586" viewBox="0 0 454.24601 140.02586" width="454.246" xmlns="http://www.w3.org/2000/svg"><g><g font-family="Baloo Bhai" font-size="106.667" letter-spacing="2.5" transform="translate(-38.358971 77.561923)" word-spacing="0"><text font-family="Baloo Bhai" font-size="1.25" letter-spacing="0" word-spacing="0"><tspan visibility="hidden" x="220.05469" y="50.469885"><tspan dx="0 .663748 .681248 .352499">Svix</tspan></tspan></text><g transform="translate(10.948727 6.78848)"><path d="m282.60987 6.0478727q0 11.1978883-7.81248 17.0572483-7.74738 5.85936-23.24213 5.85936-7.94269 0-13.54163-1.106768-5.59894-1.041664-10.48174-3.124992v-16.4062082q5.53384 2.6041602 12.43486 4.3619682 6.96613 1.757808 12.23955 1.757808 10.80727 0 10.80727-6.2499842 0-2.3437441-1.43229-3.7760321-1.43229-1.497392-4.94791-3.320304-3.51561-1.88801598-9.37497-4.361968-8.39842-3.515616-12.36976-6.5104-3.90624-2.9947837-5.72915-6.8359197-1.75781-3.90624-1.75781-9.570288 0-9.700496 7.48696-14.97392 7.55206-5.338528 21.35411-5.338528 13.15101 0 25.58587 5.729152l-5.98957 14.32288q-5.46873-2.343744-10.22132-3.841136-4.7526-1.497392-9.7005-1.497392-8.78904 0-8.78904 4.752592 0 2.669264 2.79947 4.622384 2.86458 1.95312 12.43487 5.794256 8.52862 3.450512 12.49996 6.445296 3.97135 2.9947837 5.85936 6.9010237 1.88802 3.90624002 1.88802 9.309872z"/><path d="m315.42228 27.662401-27.7343-72.786272h20.76818l14.06246 41.4712477q2.34374 7.877584 2.92968 14.9088163h.39062q.32552-6.2499843 2.92968-14.9088163l13.99736-41.4712477h20.76818l-27.7343 72.786272z"/><path d="m373.10444-63.938928q0-9.700496 10.80726-9.700496 10.80727 0 10.80727 9.700496 0 4.622384-2.73437 7.226544-2.66927 2.539056-8.0729 2.539056-10.80726 0-10.80726-9.7656zm20.70307 91.601329h-19.85672v-72.786272h19.85672z"/><path d="m429.54959-9.5119833-23.43744-35.6118877h22.52599l14.12756 23.177024 14.25778-23.177024h22.52598l-23.69785 35.6118877 24.80462 37.1743843h-22.59109l-15.29944-24.9348323-15.36454 24.9348323h-22.52598z"/></g></g><g transform="matrix(.43162486 0 0 .43162486 102.315843 -13.676087)"><path d="m336.372 145.025h-184.626l-92.313 159.891 92.313 159.891h184.626l92.313-159.891z" fill="#00a9ff" transform="translate(-294.16425 -111.02305)"/><path d="m-126.96394 327.01608h153.71738l76.85916-133.12314-76.85916-133.123611h-153.71738l-76.85916 133.123611z" fill="#fff"/><path d="m-109.46309 60.571339h2v82.555183h-2z" fill="#3f3d56"/><circle cx="-108.46306" cy="147.87096" fill="#00a9ff" r="5.69344"/><g fill="#3f3d56"><path d="m-66.762405 60.571339h2v82.555183h-2z"/><circle cx="-65.762238" cy="147.87096" r="5.69344"/><path d="m8.201463 60.571339h2v82.555183h-2z"/><circle cx="9.201432" cy="147.87096" r="5.69344"/><circle cx="-22.112501" cy="229.47694" r="5.69344"/><circle cx="-137.87915" cy="177.28706" r="5.69344"/><path d="m273.052 335.755h-2v-99.479h-42.65v-2h44.65z" transform="translate(-294.16425 -111.02305)"/></g><circle cx="-95.178345" cy="265.53543" fill="#00a9ff" r="5.69344"/><path d="m199.986 371.814h-2v-99.48h-42.65v-2h44.65z" fill="#3f3d56" transform="translate(-294.16425 -111.02305)"/><circle cx="36.719742" cy="220.93678" fill="#00a9ff" r="5.69344"/><path d="m331.884 327.215h-2v-99.479h-27.467v-2h29.467z" fill="#3f3d56" transform="translate(-294.16425 -111.02305)"/><path d="m157.285 282.616h-2v-49.461h30.416v2h-28.416z" fill="#3f3d56" transform="translate(-294.16425 -111.02305)"/><circle cx="-65.287766" cy="287.83475" fill="#3f3d56" r="5.69344"/><path d="m229.876 393.164h-2v-47.461h-28.416v-2h30.416z" fill="#3f3d56" transform="translate(-294.16425 -111.02305)"/><circle cx="7.303606" cy="245.60838" fill="#3f3d56" r="5.69344"/><path d="m302.468 350.938h-2v-49.461h30.416v2h-28.416z" fill="#3f3d56" transform="translate(-294.16425 -111.02305)"/></g></g></svg>