<svg enable-background="new 0 0 2000 1000" height="595.83398" viewBox="0 0 1788.2581 595.83398" width="1788.2581" xmlns="http://www.w3.org/2000/svg"><path d="m994.657 185.765c-32.449-28.465-65.468-37.004-109.304-37.004-51.238 0-118.415 22.772-118.415 87.671 0 63.763 63.192 83.118 116.135 87.104 39.853 2.277 55.792 10.248 55.792 29.602 0 20.494-24.479 34.16-50.666 33.59-31.312-.568-76.856-17.079-96.781-39.282l-34.158 49.528c40.989 42.697 85.395 50.1 129.8 50.1 80.272 0 120.692-42.697 120.692-92.225 0-74.58-67.178-86.535-120.123-89.952-35.866-2.277-52.376-12.523-52.376-30.742 0-17.647 18.218-27.894 51.237-27.894 26.756 0 49.529 6.262 69.452 25.05zm272.696-29.603-38.714 93.934-42.697 117.276-43.268-118.415-38.71-92.795h-75.718l120.12 282.37h75.15l119.55-282.37zm178.756-.57v281.801h-69.454v-281.801zm-75.713-77.993c0 54.083 81.977 54.083 81.977 0-.001-54.083-81.977-54.083-81.977 0zm273.829 174.205-55.221-95.071h-83.116v2.275l92.225 136.062-97.917 140.618v1.706h83.116l60.913-93.934 60.916 93.934h83.117v-1.706l-97.917-140.618 92.225-136.062v-2.275h-83.117z"/><path clip-rule="evenodd" d="m297.919 0c95.626 0 180.723 45.062 235.229 115.105-2.984 7.079-7.314 13.456-12.664 18.805-10.678 10.678-25.438 17.287-41.738 17.287-10.87 0-21.018-2.911-29.701-7.979-9.282-5.419-16.868-13.005-21.903-21.914-13.083-23.148-31.919-42.343-54.417-55.479-22.005-12.847-47.567-20.215-74.807-20.215-41.016 0-78.147 16.629-105.025 43.506-26.88 26.878-43.505 64.015-43.505 105.025 0 41.017 16.625 78.147 43.505 105.023 60.062 60.069 113.068 27.099 146.765 60.795 10.674 10.675 17.286 25.436 17.286 41.738 0 16.299-6.612 31.063-17.286 41.737-10.68 10.678-25.439 17.286-41.74 17.286-10.87 0-21.018-2.909-29.701-7.98-28.178-16.446-33.107-52.16-76.319-77.391-22.005-12.848-47.569-20.214-74.807-20.214-38.998 0-74.486 15.034-100.987 39.615-10.431-30.355-16.104-62.931-16.104-96.832 0-164.534 133.384-297.918 297.919-297.918zm281.815 201.085c-26.501 24.586-61.993 39.617-100.989 39.617-27.238 0-52.8-7.368-74.805-20.213-43.214-25.231-48.144-60.946-76.321-77.394-8.681-5.07-18.829-7.979-29.701-7.979-16.298 0-31.062 6.61-41.738 17.285-10.678 10.679-17.287 25.439-17.287 41.739 0 16.301 6.609 31.061 17.287 41.738 33.691 33.69 86.699.729 146.763 60.793 26.877 26.876 43.506 64.017 43.506 105.025 0 41.016-16.629 78.146-43.506 105.024-26.878 26.88-64.015 43.506-105.025 43.506-27.238 0-52.8-7.367-74.806-20.215-22.498-13.137-41.335-32.331-54.416-55.479-5.035-8.911-12.623-16.496-21.905-21.916-8.681-5.067-18.831-7.977-29.701-7.977-16.299 0-31.062 6.611-41.738 17.286-5.35 5.349-9.678 11.727-12.665 18.805 54.512 70.04 139.604 115.104 235.229 115.104 164.534 0 297.918-133.384 297.918-297.918.003-33.899-5.67-66.467-16.1-96.831z" fill="#018ffa" fill-rule="evenodd"/></svg>