<?xml version="1.0" encoding="UTF-8"?>
<svg id="Layer_2" data-name="Layer 2" xmlns="http://www.w3.org/2000/svg" viewBox="0 0 609.04 208.72">
  <defs>
    <style>
      .cls-1 {
        fill: #fff;
      }

      .cls-1, .cls-2 {
        stroke-width: 0px;
      }

      .cls-2 {
        fill: #2c70ff;
      }
    </style>
  </defs>
  <g id="Layer_1-2" data-name="Layer 1">
    <g>
      <g>
        <path class="cls-1" d="M393.75,135.5h-6.17l-26.3-82.05h-22.48l36.08,101.87.17.46h31.24l36.23-102.32h-22.48l-26.29,82.05Z"/>
        <path class="cls-1" d="M469.97,13.74c-3.67,0-6.86,1.35-9.42,3.99-2.56,2.65-3.88,5.83-3.88,9.52s1.31,6.81,3.88,9.32c2.58,2.49,5.73,3.77,9.4,3.77s6.84-1.26,9.4-3.77c2.58-2.51,3.89-5.65,3.89-9.32s-1.3-6.88-3.88-9.52c-2.58-2.65-5.75-3.99-9.42-3.99h.02Z"/>
        <path class="cls-1" d="M480.11,53.45h-20.27v102.32h20.27V53.45Z"/>
        <path class="cls-1" d="M572.39,102.09l33.92-48.63h-23.74l-25.66,38.91h-9.37l-25.66-38.91h-23.74l33.92,48.63-36.63,53.69h24.15l27.97-43.96h9.37l27.97,43.96h24.16l-36.65-53.69Z"/>
        <path class="cls-1" d="M289.96,157.17c-13.33,0-24.06-3.17-31.92-9.4-7.57-6-12.05-13.99-13.33-23.78l-.07-.56h21.57l.08.39c.96,4.57,3.44,8.36,7.36,11.27,4.13,3.08,9.67,4.63,16.5,4.63s11.68-1.38,15.27-4.13c3.62-2.76,5.46-6.05,5.46-9.77,0-5.41-2.21-9.17-6.57-11.17-4.23-1.94-10.5-3.4-18.62-4.38-6.94-.81-13.33-2.44-18.97-4.82-5.61-2.36-10.09-5.65-13.33-9.77-3.22-4.09-4.85-9.3-4.85-15.5,0-8.75,3.49-15.92,10.35-21.3,6.91-5.41,16.67-8.16,29.03-8.16s22.04,2.81,28.82,8.36c6.49,5.32,10.41,12.64,11.66,21.72l.08.56h-20.12l-.08-.4c-.72-3.88-2.91-7.01-6.49-9.32-3.77-2.44-8.53-3.69-14.09-3.69s-10.31,1.1-13.68,3.27c-3.44,2.22-5.17,5.17-5.17,8.76,0,7.68,8.21,12.44,24.38,14.1,7.48.83,14.26,2.24,20.14,4.21,5.8,1.95,10.45,5.04,13.82,9.15,3.35,4.09,5.06,9.94,5.06,17.36.13,6.07-1.6,11.59-5.17,16.45-3.59,4.87-8.59,8.78-14.9,11.61-6.3,2.85-13.78,4.3-22.21,4.3v.02Z"/>
        <path class="cls-1" d="M289.96,157.17c-13.33,0-24.06-3.17-31.92-9.4-7.57-6-12.05-13.99-13.33-23.78l-.07-.56h21.57l.08.39c.96,4.57,3.44,8.36,7.36,11.27,4.13,3.08,9.67,4.63,16.5,4.63s11.68-1.38,15.27-4.13c3.62-2.76,5.46-6.05,5.46-9.77,0-5.41-2.21-9.17-6.57-11.17-4.23-1.94-10.5-3.4-18.62-4.38-6.94-.81-13.33-2.44-18.97-4.82-5.61-2.36-10.09-5.65-13.33-9.77-3.22-4.09-4.85-9.3-4.85-15.5,0-8.75,3.49-15.92,10.35-21.3,6.91-5.41,16.67-8.16,29.03-8.16s22.04,2.81,28.82,8.36c6.49,5.32,10.41,12.64,11.66,21.72l.08.56h-20.12l-.08-.4c-.72-3.88-2.91-7.01-6.49-9.32-3.77-2.44-8.53-3.69-14.09-3.69s-10.31,1.1-13.68,3.27c-3.44,2.22-5.17,5.17-5.17,8.76,0,7.68,8.21,12.44,24.38,14.1,7.48.83,14.26,2.24,20.14,4.21,5.8,1.95,10.45,5.04,13.82,9.15,3.35,4.09,5.06,9.94,5.06,17.36.13,6.07-1.6,11.59-5.17,16.45-3.59,4.87-8.59,8.78-14.9,11.61-6.3,2.85-13.78,4.3-22.21,4.3v.02Z"/>
      </g>
      <circle class="cls-1" cx="104.36" cy="104.36" r="104.36"/>
      <g>
        <path class="cls-2" d="M165.95,89.06c-17.29-.82-33.49-10.36-41.03-27.09-3.33-7.39-10.72-12.29-18.82-12.51-17.17-.46-28.06,21.09-17.28,34.67,3.7,4.67,9.27,7.26,16.53,7.73v.04c14.04,1,26.15,7.07,34.15,17.12,14.69,18.48,12.55,46.37-4.47,62.56-20.53,19.52-54.76,15.53-70.41-7.94-1.39-2.09-2.61-4.29-3.64-6.57-3.33-7.39-10.72-12.29-18.82-12.5-8.39-.23-16.24,2.97-21.22,8.32,16.42,28.18,46.73,47.34,81.72,47.94,53.28.93,97.23-41.5,98.16-94.78.16-8.98-.95-17.68-3.1-25.96.45,1.72-13.4,6.53-14.94,6.98-5.56,1.6-11.26,2.25-16.84,1.98Z"/>
        <path class="cls-2" d="M42.79,119.52c17.66.45,33.76,11.13,41.02,27.25,3.33,7.39,10.72,12.29,18.82,12.5,5.63.16,11.04-1.93,15.13-5.83,7.67-7.3,8.73-20.53,2.13-28.84-3.7-4.67-9.27-7.26-16.53-7.73v-.04c-14.04-1-26.16-7.07-34.15-17.12-17.78-22.36-10.23-55.64,14.26-69.38,7.06-3.96,15.14-6.11,23.25-5.9,17.66.45,33.76,11.13,41.02,27.25,3.33,7.39,10.72,12.29,18.82,12.51,8.41.23,16.26-2.97,21.22-8.32-16.42-28.19-46.75-47.35-81.74-47.98C52.78,6.98,8.84,49.41,7.89,102.69c-.16,8.98.95,17.68,3.09,25.96,8.96-6.08,20.05-9.39,31.81-9.12Z"/>
      </g>
    </g>
  </g>
</svg>