<?xml version="1.0" encoding="UTF-8" standalone="no"?>
<svg
   xmlns:dc="http://purl.org/dc/elements/1.1/"
   xmlns:cc="http://creativecommons.org/ns#"
   xmlns:rdf="http://www.w3.org/1999/02/22-rdf-syntax-ns#"
   xmlns:svg="http://www.w3.org/2000/svg"
   xmlns="http://www.w3.org/2000/svg"
   xmlns:sodipodi="http://sodipodi.sourceforge.net/DTD/sodipodi-0.dtd"
   xmlns:inkscape="http://www.inkscape.org/namespaces/inkscape"
   width="48mm"
   height="48mm"
   viewBox="0 0 48 48.000001"
   version="1.1"
   id="svg910"
   inkscape:version="1.0.2 (e86c870879, 2021-01-15)"
   sodipodi:docname="logo.svg">
  <defs
     id="defs904" />
  <sodipodi:namedview
     id="base"
     pagecolor="#ffffff"
     bordercolor="#666666"
     borderopacity="1.0"
     inkscape:pageopacity="0.0"
     inkscape:pageshadow="2"
     inkscape:zoom="1.2302615"
     inkscape:cx="147.7126"
     inkscape:cy="107.01561"
     inkscape:document-units="mm"
     inkscape:current-layer="layer1"
     inkscape:document-rotation="0"
     showgrid="false"
     fit-margin-top="0"
     fit-margin-left="0"
     fit-margin-right="0"
     fit-margin-bottom="0"
     inkscape:window-width="1916"
     inkscape:window-height="1036"
     inkscape:window-x="0"
     inkscape:window-y="0"
     inkscape:window-maximized="1" />
  <metadata
     id="metadata907">
    <rdf:RDF>
      <cc:Work
         rdf:about="">
        <dc:format>image/svg+xml</dc:format>
        <dc:type
           rdf:resource="http://purl.org/dc/dcmitype/StillImage" />
        <dc:title></dc:title>
      </cc:Work>
    </rdf:RDF>
  </metadata>
  <g
     inkscape:label="Layer 1"
     inkscape:groupmode="layer"
     id="layer1"
     transform="translate(-4.9900245,-7.0617805)">
    <g
       id="g121"
       transform="matrix(0.11420074,0,0,0.11420074,34.712081,8.9190621)"
       style="display:inline;fill:#000000">
      <polygon
         points="151.746,464.807 336.372,464.807 428.685,304.916 336.372,145.025 151.746,145.025 59.433,304.916 "
         fill="#005bff"
         id="polygon8"
         transform="translate(-294.16425,-111.02305)"
         style="fill:#00a9ff;fill-opacity:1" />
      <path
         d="M -126.96394,327.01608 H 26.75344 L 103.6126,193.89294 26.75344,60.769329 H -126.96394 L -203.8231,193.89294 Z"
         fill="#ffffff"
         id="path10" />
      <rect
         x="-109.46309"
         y="60.571339"
         width="2"
         height="82.555183"
         fill="#3f3d56"
         id="rect46" />
      <circle
         cx="-108.46306"
         cy="147.87096"
         r="5.69344"
         fill="#005bff"
         id="circle48"
         style="fill:#00a9ff;fill-opacity:1" />
      <rect
         x="-66.762405"
         y="60.571339"
         width="2"
         height="82.555183"
         fill="#3f3d56"
         id="rect50" />
      <circle
         cx="-65.762238"
         cy="147.87096"
         r="5.69344"
         fill="#3f3d56"
         id="circle52" />
      <rect
         x="8.2014627"
         y="60.571339"
         width="2"
         height="82.555183"
         fill="#3f3d56"
         id="rect54" />
      <circle
         cx="9.2014322"
         cy="147.87096"
         r="5.69344"
         fill="#3f3d56"
         id="circle56" />
      <circle
         cx="-22.112501"
         cy="229.47694"
         r="5.69344"
         fill="#3f3d56"
         id="circle58" />
      <circle
         cx="-137.87915"
         cy="177.28706"
         r="5.69344"
         fill="#3f3d56"
         id="circle60" />
      <polygon
         points="228.402,236.276 228.402,234.276 273.052,234.276 273.052,335.755 271.052,335.755 271.052,236.276 "
         fill="#3f3d56"
         id="polygon62"
         transform="translate(-294.16425,-111.02305)" />
      <circle
         cx="-95.178345"
         cy="265.53543"
         r="5.69344"
         fill="#005bff"
         id="circle64"
         style="fill:#00a9ff;fill-opacity:1" />
      <polygon
         points="155.336,272.334 155.336,270.334 199.986,270.334 199.986,371.814 197.986,371.814 197.986,272.334 "
         fill="#3f3d56"
         id="polygon66"
         transform="translate(-294.16425,-111.02305)" />
      <circle
         cx="36.719742"
         cy="220.93678"
         r="5.69344"
         fill="#005bff"
         id="circle68"
         style="fill:#00a9ff;fill-opacity:1" />
      <polygon
         points="302.417,227.736 302.417,225.736 331.884,225.736 331.884,327.215 329.884,327.215 329.884,227.736 "
         fill="#3f3d56"
         id="polygon70"
         transform="translate(-294.16425,-111.02305)" />
      <polygon
         points="185.701,233.155 185.701,235.155 157.285,235.155 157.285,282.616 155.285,282.616 155.285,233.155 "
         fill="#3f3d56"
         id="polygon72"
         transform="translate(-294.16425,-111.02305)" />
      <circle
         cx="-65.287766"
         cy="287.83475"
         r="5.69344"
         fill="#3f3d56"
         id="circle74" />
      <polygon
         points="199.46,345.703 199.46,343.703 229.876,343.703 229.876,393.164 227.876,393.164 227.876,345.703 "
         fill="#3f3d56"
         id="polygon76"
         transform="translate(-294.16425,-111.02305)" />
      <circle
         cx="7.3036056"
         cy="245.60838"
         r="5.69344"
         fill="#3f3d56"
         id="circle78" />
      <polygon
         points="330.884,301.477 330.884,303.477 302.468,303.477 302.468,350.938 300.468,350.938 300.468,301.477 "
         fill="#3f3d56"
         id="polygon80"
         transform="translate(-294.16425,-111.02305)" />
    </g>
  </g>
</svg>
