<svg width="90" height="28" viewBox="0 0 90 28" fill="none" xmlns="http://www.w3.org/2000/svg">
<g clip-path="url(#clip0_2002_937)">
<path d="M75.0151 0H14C6.28172 0 0 6.28172 0 14C0 21.7183 6.28172 28 14 28H75.0151C82.7334 28 89.0151 21.7183 89.0151 14C89.0151 6.28172 82.7334 0 75.0151 0Z" fill="white"/>
<path d="M21.8016 12.0504C19.6083 11.9478 17.5561 10.7389 16.6005 8.61612C16.1773 7.6798 15.2409 7.05772 14.2148 7.03207C12.0375 6.97435 10.6587 9.70637 12.0247 11.4283C12.4929 12.0215 13.1983 12.3486 14.1186 12.4095C15.8983 12.541 17.4342 13.3106 18.4475 14.5836C20.3106 16.9244 20.038 20.4613 17.88 22.5135C15.2762 24.989 10.9377 24.4824 8.95601 21.5066C8.77964 21.2437 8.62573 20.9647 8.49426 20.6729C8.07098 19.7366 7.13466 19.1145 6.10855 19.0889C5.04396 19.06 4.04991 19.464 3.41821 20.1438C5.49929 23.716 9.3408 26.1434 13.7755 26.2203C20.5286 26.339 26.1017 20.9583 26.2171 14.2052C26.2364 13.0669 26.0953 11.9638 25.8259 10.9153C25.8836 11.1333 24.1264 11.7426 23.9308 11.8003C23.2254 12.0023 22.5039 12.0857 21.7952 12.0504H21.8016Z" fill="#2C70FF"/>
<path d="M6.18881 15.9111C8.42701 15.9688 10.4664 17.322 11.3899 19.3646C11.8132 20.301 12.7495 20.923 13.7756 20.9487C14.4907 20.9679 15.1737 20.705 15.6932 20.208C16.6648 19.2813 16.7994 17.6074 15.9625 16.5525C15.4943 15.9592 14.7889 15.6322 13.8686 15.5712C12.0889 15.4398 10.553 14.6702 9.5397 13.3972C7.28546 10.5625 8.24423 6.34585 11.3482 4.60147C12.2429 4.09803 13.2658 3.82868 14.2951 3.85433C16.5333 3.91205 18.5727 5.26523 19.4962 7.30783C19.9195 8.24416 20.8558 8.86624 21.8819 8.89189C22.9465 8.92075 23.9437 8.51672 24.5722 7.83692C22.4911 4.26157 18.6464 1.83417 14.2117 1.75401C7.45541 1.64498 1.88555 7.02565 1.76691 13.7787C1.74767 14.9171 1.88555 16.0202 2.15811 17.0687C3.29325 16.2991 4.70094 15.8791 6.18881 15.9111Z" fill="#2C70FF"/>
<path d="M52.3253 18.191H51.4948L47.9548 7.14751H44.9277L49.7825 20.8589L49.805 20.9198H54.0088L58.886 7.14751H55.859L52.3221 18.191H52.3253Z" fill="#1C1C46"/>
<path d="M62.5832 1.80531C62.0894 1.80531 61.6597 1.98809 61.3166 2.34402C60.9703 2.69995 60.7939 3.12964 60.7939 3.62666C60.7939 4.12368 60.9703 4.54375 61.3166 4.88044C61.6629 5.21713 62.0862 5.38708 62.5832 5.38708C63.0802 5.38708 63.5035 5.21713 63.8498 4.88044C64.1961 4.54375 64.3725 4.12048 64.3725 3.62666C64.3725 3.13284 64.1994 2.69995 63.8498 2.34402C63.5035 1.98809 63.077 1.80531 62.5832 1.80531Z" fill="#1C1C46"/>
<path d="M63.9493 7.14751H61.2205V20.9198H63.9493V7.14751Z" fill="#1C1C46"/>
<path d="M76.3683 13.6954L80.9345 7.15071H77.7375L74.284 12.3871H73.0238L69.5703 7.15071H66.3734L70.9396 13.6954L66.0078 20.9198H69.2593L73.0238 15.0037H74.284L78.0486 20.9198H81.3001L76.3683 13.6954Z" fill="#1C1C46"/>
<path d="M38.3572 21.109C36.5648 21.109 35.1186 20.6825 34.0604 19.8424C33.0407 19.0344 32.4379 17.9601 32.2679 16.6422L32.2583 16.5685H35.1603L35.1731 16.6198C35.3014 17.2355 35.6348 17.7453 36.1639 18.1365C36.7187 18.5502 37.4658 18.7586 38.3829 18.7586C39.3 18.7586 39.9541 18.5726 40.4383 18.2038C40.9257 17.8319 41.1726 17.3894 41.1726 16.8891C41.1726 16.1612 40.8744 15.6546 40.2876 15.3853C39.7168 15.1255 38.8735 14.9267 37.7801 14.7952C36.8469 14.6862 35.9876 14.465 35.2276 14.1475C34.4709 13.8301 33.868 13.3875 33.4351 12.8328C33.0022 12.2813 32.781 11.5822 32.781 10.7453C32.781 9.56848 33.2491 8.6033 34.1726 7.87861C35.1026 7.15071 36.4173 6.78195 38.0815 6.78195C39.7457 6.78195 41.0476 7.16033 41.9583 7.90747C42.8305 8.62574 43.3595 9.60696 43.5263 10.8319L43.5391 10.9056H40.8295L40.8167 10.8511C40.7205 10.3284 40.4255 9.90838 39.9445 9.59734C39.4379 9.26706 38.7966 9.10032 38.0494 9.10032C37.3023 9.10032 36.661 9.24782 36.2088 9.53962C35.7471 9.83784 35.513 10.2355 35.513 10.7197C35.513 11.7554 36.6161 12.3935 38.7933 12.618C39.8002 12.7302 40.7109 12.9194 41.5029 13.1855C42.2821 13.4485 42.9106 13.8621 43.3627 14.4169C43.8149 14.9684 44.0425 15.754 44.0425 16.7545C44.0618 17.5721 43.8277 18.3161 43.3467 18.967C42.8625 19.6212 42.1891 20.1503 41.3426 20.5286C40.4928 20.9134 39.486 21.1058 38.354 21.1058L38.3572 21.109Z" fill="#1C1C46"/>
<path d="M38.3572 21.109C36.5648 21.109 35.1186 20.6825 34.0604 19.8424C33.0407 19.0344 32.4379 17.9601 32.2679 16.6422L32.2583 16.5685H35.1603L35.1731 16.6198C35.3014 17.2355 35.6348 17.7453 36.1639 18.1365C36.7187 18.5502 37.4658 18.7586 38.3829 18.7586C39.3 18.7586 39.9541 18.5726 40.4383 18.2038C40.9257 17.8319 41.1726 17.3894 41.1726 16.8891C41.1726 16.1612 40.8744 15.6546 40.2876 15.3853C39.7168 15.1255 38.8735 14.9267 37.7801 14.7952C36.8469 14.6862 35.9876 14.465 35.2276 14.1475C34.4709 13.8301 33.868 13.3875 33.4351 12.8328C33.0022 12.2813 32.781 11.5822 32.781 10.7453C32.781 9.56848 33.2491 8.6033 34.1726 7.87861C35.1026 7.15071 36.4173 6.78195 38.0815 6.78195C39.7457 6.78195 41.0476 7.16033 41.9583 7.90747C42.8305 8.62574 43.3595 9.60696 43.5263 10.8319L43.5391 10.9056H40.8295L40.8167 10.8511C40.7205 10.3284 40.4255 9.90838 39.9445 9.59734C39.4379 9.26706 38.7966 9.10032 38.0494 9.10032C37.3023 9.10032 36.661 9.24782 36.2088 9.53962C35.7471 9.83784 35.513 10.2355 35.513 10.7197C35.513 11.7554 36.6161 12.3935 38.7933 12.618C39.8002 12.7302 40.7109 12.9194 41.5029 13.1855C42.2821 13.4485 42.9106 13.8621 43.3627 14.4169C43.8149 14.9684 44.0425 15.754 44.0425 16.7545C44.0618 17.5721 43.8277 18.3161 43.3467 18.967C42.8625 19.6212 42.1891 20.1503 41.3426 20.5286C40.4928 20.9134 39.486 21.1058 38.354 21.1058L38.3572 21.109Z" fill="#1C1C46"/>
</g>
<defs>
<clipPath id="clip0_2002_937">
<rect width="89.0151" height="28" fill="white"/>
</clipPath>
</defs>
</svg>
