<svg height="600" width="1820" xmlns="http://www.w3.org/2000/svg" xmlns:xlink="http://www.w3.org/1999/xlink"><defs><filter id="a" height="1.125" width="1.023636" x="-.011818" y="-.054167"><feOffset dy="4" in="SourceAlpha" result="offOut"/><feGaussianBlur in="offOut" result="blurOut" stdDeviation="5"/><feColorMatrix in="blurOut" result="colorOut" values="0 0 0 0 0 0 0 0 0 0 0 0 0 0 0 0 0 0 0.5019607843137255 0"/><feBlend in="SourceGraphic" in2="colorOut" mode="normal"/></filter><filter id="b" height="1.125" width="1.024006" x="-.012003" y="-.054167"><feOffset dy="4" in="SourceAlpha" result="offOut"/><feGaussianBlur in="offOut" result="blurOut" stdDeviation="5"/><feColorMatrix in="blurOut" result="colorOut" values="0 0 0 0 0 0 0 0 0 0 0 0 0 0 0 0 0 0 0.5019607843137255 0"/><feBlend in="SourceGraphic" in2="colorOut" mode="normal"/></filter><filter id="c" height="1.058335" width="1.042489" x="-.021245" y="-.023698"><feOffset dy="6" in="SourceAlpha" result="offOut"/><feGaussianBlur in="offOut" result="blurOut" stdDeviation="5"/><feColorMatrix in="blurOut" result="colorOut" values="0 0 0 0 0 0 0 0 0 0 0 0 0 0 0 0 0 0 0.5019607843137255 0"/><feBlend in="SourceGraphic" in2="colorOut" mode="normal"/></filter><filter id="d" height="1.25" width="1.15625" x="-.078125" y="-.104167"><feOffset dy="5" in="SourceAlpha" result="offOut"/><feGaussianBlur in="offOut" result="blurOut" stdDeviation="5"/><feColorMatrix in="blurOut" result="colorOut" values="0 0 0 0 0 0 0 0 0 0 0 0 0 0 0 0 0 0 0.5019607843137255 0"/><feBlend in="SourceGraphic" in2="colorOut" mode="normal"/></filter><filter id="e" height="1.25" width="1.13438" x="-.06719" y="-.104167"><feOffset dy="5" in="SourceAlpha" result="offOut"/><feGaussianBlur in="offOut" result="blurOut" stdDeviation="5"/><feColorMatrix in="blurOut" result="colorOut" values="0 0 0 0 0 0 0 0 0 0 0 0 0 0 0 0 0 0 0.5019607843137255 0"/><feBlend in="SourceGraphic" in2="colorOut" mode="normal"/></filter><filter id="f" height="1.25" width="1.083333" x="-.041667" y="-.104167"><feOffset dy="5" in="SourceAlpha" result="offOut"/><feGaussianBlur in="offOut" result="blurOut" stdDeviation="5"/><feColorMatrix in="blurOut" result="colorOut" values="0 0 0 0 0 0 0 0 0 0 0 0 0 0 0 0 0 0 0.5019607843137255 0"/><feBlend in="SourceGraphic" in2="colorOut" mode="normal"/></filter><filter id="g" height="1.375" width="1.15625" x="-.078125" y="-.15625"><feOffset dy="5" in="SourceAlpha" result="offOut"/><feGaussianBlur in="offOut" result="blurOut" stdDeviation="5"/><feColorMatrix in="blurOut" result="colorOut" values="0 0 0 0 0 0 0 0 0 0 0 0 0 0 0 0 0 0 0.5019607843137255 0"/><feBlend in="SourceGraphic" in2="colorOut" mode="normal"/></filter><filter id="h" height="1.25" width="1.146921" x="-.07346" y="-.104167"><feOffset dy="5" in="SourceAlpha" result="offOut"/><feGaussianBlur in="offOut" result="blurOut" stdDeviation="5"/><feColorMatrix in="blurOut" result="colorOut" values="0 0 0 0 0 0 0 0 0 0 0 0 0 0 0 0 0 0 0.5019607843137255 0"/><feBlend in="SourceGraphic" in2="colorOut" mode="normal"/></filter><filter id="i" height="1.25" width="1.113984" x="-.056992" y="-.104167"><feOffset dy="5" in="SourceAlpha" result="offOut"/><feGaussianBlur in="offOut" result="blurOut" stdDeviation="5"/><feColorMatrix in="blurOut" result="colorOut" values="0 0 0 0 0 0 0 0 0 0 0 0 0 0 0 0 0 0 0.5019607843137255 0"/><feBlend in="SourceGraphic" in2="colorOut" mode="normal"/></filter><filter id="j" height="1.25" width="1.125552" x="-.062776" y="-.104167"><feOffset dy="5" in="SourceAlpha" result="offOut"/><feGaussianBlur in="offOut" result="blurOut" stdDeviation="5"/><feColorMatrix in="blurOut" result="colorOut" values="0 0 0 0 0 0 0 0 0 0 0 0 0 0 0 0 0 0 0.5019607843137255 0"/><feBlend in="SourceGraphic" in2="colorOut" mode="normal"/></filter><filter id="k" height="1.326087" width="1.211864" x="-.105932" y="-.13587"><feOffset dy="5" in="SourceAlpha" result="offOut"/><feGaussianBlur in="offOut" result="blurOut" stdDeviation="5"/><feColorMatrix in="blurOut" result="colorOut" values="0 0 0 0 0 0 0 0 0 0 0 0 0 0 0 0 0 0 0.5019607843137255 0"/><feBlend in="SourceGraphic" in2="colorOut" mode="normal"/></filter><filter id="l" height="1.448236" width="1.05722" x="-.02861" y="-.18074"><feOffset dy="6" in="SourceAlpha" result="offOut"/><feGaussianBlur in="offOut" result="blurOut" stdDeviation="5"/><feColorMatrix in="blurOut" result="colorOut" values="0 0 0 0 0 0 0 0 0 0 0 0 0 0 0 0 0 0 0.5019607843137255 0"/><feBlend in="SourceGraphic" in2="colorOut" mode="normal"/></filter><path id="m" d="m180 0v-1490h908v168h-718v486h669v168h-669v500h727v168z"/><path id="n" d="m481 0-427-1118h197c107 314 236 620 325 951 87-331 217-637 324-951h197l-427 1118z"/><path id="o" d="m628 24c-324 0-524-230-524-574 0-343 198-582 503-582 237 0 487 146 487 559v75h-808c9 234 145 362 343 362 132 0 231-58 273-172l174 48c-52 169-219 284-448 284zm-341-674h624c-17-190-120-322-304-322-192 0-309 151-320 322"/><path id="p" d="m338-670v670h-180v-1118h173l1 207c72-158 192-221 342-221 226 0 378 139 378 422v710h-180v-695c0-172-96-275-252-275-161 0-282 109-282 300"/><path id="q" d="m598-1118v154h-230v674c0 100 37 144 132 144 23 0 62-6 92-12l37 152c-37 13-88 20-134 20-193 0-307-107-307-290v-688h-168v-154h168v-266h180v266z"/><path id="r" d="m98-1322v-168h1126v168h-467v1322h-190v-1322z"/><path id="s" d="m158 0v-1118h174v172h12c41-113 157-188 290-188 26 0 70 2 91 3v181c-11-2-60-10-108-10-161 0-279 109-279 260v700z"/><path id="t" d="m158 0v-1118h180v1118zm91-1301c-68 0-125-53-125-119s57-119 125-119c69 0 126 53 126 119s-57 119-126 119"/><path id="u" d="m611 442c-248 0-391-105-460-228l146-94c47 65 117 165 314 165 178 0 307-82 307-266v-224h-17c-38 64-109 187-325 187-268 0-472-195-472-546 0-346 197-568 476-568 216 0 288 133 326 193h17v-179h175v1147c0 289-215 413-487 413zm-5-620c203 0 314-146 314-390 0-237-108-403-314-403-213 0-319 180-319 403 0 230 109 390 319 390"/><path id="v" d="m577 24c-279 0-473-224-473-580 0-354 195-576 474-576 218 0 287 134 324 193h14v-551h180v1490h-174v-173h-20c-37 62-112 197-325 197zm27-161c203 0 314-172 314-421 0-247-108-413-314-413-212 0-317 181-317 413 0 235 108 421 317 421"/><path id="w" d="m613 24c-304 0-509-231-509-576 0-350 205-580 509-580 305 0 511 230 511 580 0 345-206 576-511 576zm0-161c226 0 329-195 329-415 0-222-103-419-329-419-223 0-326 196-326 419 0 220 103 415 326 415"/><path id="x" d="m537 14c-226 0-379-139-379-422v-710h180v695c0 172 97 275 253 275 160 0 281-109 281-300v-670h181v1118h-174v-209c-73 163-195 223-342 223"/><g id="y"><path d="m600 0v-610l-548-880h220l295 481c50 82 90 150 130 243 40-96 80-164 128-243l294-481h219l-548 880v610z" transform="scale(.01085069)"/><use transform="matrix(.01085069 0 0 .01085069 13.378906 0)" xlink:href="#w"/><use transform="matrix(.01085069 0 0 .01085069 26.703559 0)" xlink:href="#x"/><use transform="matrix(.01085069 0 0 .01085069 39.84375 0)" xlink:href="#s"/></g><path id="z" d="m657 26c-323 0-524-166-541-416h195c15 169 171 246 346 246 202 0 356-106 356-265 5-203-294-238-475-293-239-73-380-191-380-389 0-252 224-419 512-419 294 0 499 171 508 396h-186c-17-145-151-228-328-228-193 0-321 102-321 242 0 156 175 211 284 241l149 41c160 44 422 134 422 412 0 244-197 432-541 432"/><path id="A" d="m471 26c-212 0-381-124-381-344 0-256 228-303 435-329 202-27 287-16 287-108 0-139-79-219-234-219-161 0-248 86-283 164l-173-57c86-203 278-265 451-265 150 0 419 46 419 395v737h-177v-152h-12c-38 79-143 178-332 178zm31-159c199 0 310-134 310-271v-155c-30 35-226 55-295 64-131 17-246 59-246 186 0 116 97 176 231 176"/><path id="B" d="m158 0v-1118h175l1 205c55-151 181-225 313-225 147 0 245 90 285 228 53-141 190-228 352-228 194 0 352 125 352 384v754h-181v-749c0-161-105-225-225-225-151 0-243 103-243 244v730h-180v-767c0-124-93-207-219-207-131 0-250 92-250 270v704z"/><path id="C" d="m180 0v-1490h510c348 0 508 209 508 474 0 266-160 477-507 477h-321v539zm190-706h312c236 0 327-133 327-310 0-176-91-307-329-307h-310z"/><path id="D" d="m538 24c-230 0-390-102-430-295l171-41c32 123 123 178 257 178 156 0 256-77 256-169 0-77-54-128-164-154l-186-44c-203-48-300-148-300-305 0-192 176-326 414-326 230 0 351 112 402 269l-163 42c-31-80-94-158-238-158-133 0-233 69-233 162 0 83 57 129 188 160l169 40c203 48 298 149 298 302 0 196-179 339-441 339"/><path id="E" d="m338-670v670h-180v-1490h180v566c73-149 190-208 336-208 226 0 379 139 379 422v710h-181v-695c0-172-96-275-252-275-161 0-282 109-282 300"/><g id="F"><use transform="scale(.01085069)" xlink:href="#q"/><use transform="matrix(.01085069 0 0 .01085069 7.052951 0)" xlink:href="#w"/></g><path id="G" d="m65 0 393-574-370-544h210c88 136 192 297 267 435 67-142 176-302 264-435h206l-374 554 392 564h-209c-94-144-206-310-287-458-73 150-191 316-284 458z"/><g id="H"><use transform="scale(.01085069)" xlink:href="#z"/><use transform="matrix(.01085069 0 0 .01085069 14.257813 0)" xlink:href="#n"/><use transform="matrix(.01085069 0 0 .01085069 26.746962 0)" xlink:href="#t"/><use transform="matrix(.01085069 0 0 .01085069 32.128906 0)" xlink:href="#G"/></g><path id="I" d="m52 0 541-1490h220l548 1490h-200l-149-416h-614l-144 416zm404-582h497c-103-290-145-390-251-756-108 377-145 460-246 756"/><path id="J" d="m370-1490v1490h-190v-1490z"/><path id="K" d="m631 20c-350 0-501-215-501-562 0-355 162-560 502-560 250 0 399 118 446 323l-192 14c-23-124-109-196-262-196-242 0-305 171-305 415 1 245 61 427 304 427 151 0 248-77 267-215l190 12c-41 215-197 342-449 342"/><path id="L" d="m839-1102c70 0 148 7 206 17v167c-112-18-268-36-363 15-129 69-208 203-208 395v508h-180c-10-367 32-789-52-1082h171c21 75 41 161 48 250h5c67-152 152-270 373-270"/><path id="M" d="m617-1102c355 0 481 238 477 599h-772c5 222 84 388 301 388 144 0 244-59 284-166l158 45c-63 164-211 256-442 256-342 0-490-220-490-568 0-346 151-554 484-554zm291 461c-18-192-90-328-289-328-194 0-287 128-295 328z"/><path id="N" d="m1000-272c3 95 12 159 101 161 21 0 41-3 59-7v112c-44 10-86 16-139 16-141 2-191-84-197-217h-6c-70 131-170 227-372 227-207 0-318-120-318-322 0-266 194-348 454-354l236-4c12-191-40-305-222-305-140 0-220 47-232 172l-188-17c33-204 181-292 423-292 255 0 401 118 401 364zm-683-27c0 109 63 184 175 182 166-3 259-96 306-217 24-65 20-120 20-200-232 7-501-28-501 235"/><path id="O" d="m682 16c-209 0-323-80-324-285v-671h-168v-142h170l58-282h120v282h432v142h-432v652c2 114 60 155 182 155 106 0 209-16 297-34v137c-96 26-211 46-335 46"/><path id="P" d="m873-819c-18-114-119-146-250-146-163 0-245 50-245 151 0 151 170 148 294 185 182 54 388 94 388 320 0 240-189 325-439 329-245 4-410-69-454-268l159-31c24 133 136 168 295 165 144-2 270-31 270-171 0-164-195-160-331-202-167-52-350-87-350-299 0-218 173-315 413-313 220 2 373 77 412 260"/><path id="Q" d="m715 0h-213l-433-1082h202c94 253 197 500 285 758 19 57 36 126 52 183 96-335 234-626 350-941h201"/><path id="R" d="m706-1102c241 0 344 136 343 381v721h-181v-695c1-168-57-273-220-268-190 6-283 138-283 336v627h-180c-3-360 6-732-6-1082h170c4 54 7 126 8 185h3c63-121 164-204 346-205"/><path id="S" d="m698-1104c312 3 392 244 392 558 0 315-82 566-392 566-169 0-277-65-331-184h-5c8 188 2 394 4 589h-181v-1283c0-76-1-156-6-224h175c6 52 9 120 10 178h4c58-122 150-202 330-200zm-49 991c225 0 255-203 255-433 0-225-32-419-253-419-236 0-285 192-285 441 0 237 53 411 283 411"/><path id="T" d="m496 0v-299h235v299zm0-783v-299h235v299z"/><path id="U" d="m908-845h-142l-40-639h224zm-449 0h-141l-41-639h224"/><path id="V" d="m745-142h380v142h-982v-142h422v-798h-319v-142h499zm-200-1150v-192h200v192z"/><path id="W" d="m615-1102c343 0 484 203 482 560-1 347-147 562-488 562-336 0-475-219-479-562-4-349 156-560 485-560zm-8 989c240 0 301-180 301-429 0-245-55-427-290-427-236 0-299 181-299 427 0 243 61 429 288 429"/><path id="X" d="m427-171c3 195 2 397 2 596h-281v-1271c1-83-4-168-8-236h272c10 49 14 118 15 176h4c59-114 151-197 316-197 291 0 385 259 385 560 0 243-65 433-220 521-50 28-109 42-176 42-162-2-253-78-309-191zm69-661c-91 113-92 463-1 586 46 62 145 101 225 54 96-57 118-191 119-351 0-123-18-215-53-276-46-82-128-115-220-74-25 12-48 33-70 61" fill="#635dff"/><path id="Y" d="m613 24c-304 0-509-231-509-576 0-350 205-580 509-580 216 0 392 114 453 309l-173 49c-33-115-133-197-280-197-223 0-326 196-326 419 0 220 103 415 326 415 150 0 252-85 285-206l172 49c-60 199-238 318-457 318"/><path id="Z" d="m180 0v-1490h510c348 0 508 194 508 460 0 198-88 351-276 417l334 613h-220l-310-579c-117 2-238 0-356 1v578zm190-747h312c235 0 327-108 327-283 0-177-92-293-329-293h-310z"/><path id="aa" d="m180 0v-1490h901v168h-711v510h643v168h-643v644z"/><g id="ab"><use transform="scale(.01085069)" xlink:href="#aa"/><use transform="matrix(.01085069 0 0 .01085069 12.575955 0)" xlink:href="#A"/><use transform="matrix(.01085069 0 0 .01085069 25.054253 0)" xlink:href="#p"/><use transform="matrix(.01085069 0 0 .01085069 38.183594 0)" xlink:href="#w"/><use transform="matrix(.01085069 0 0 .01085069 51.508247 0)" xlink:href="#x"/><use transform="matrix(.01085069 0 0 .01085069 64.648437 0)" xlink:href="#q"/></g><path id="ac" d="m338-1490v1490h-180v-1490z"/><path id="ad" d="m783 20c-382 0-661-292-661-764 0-473 279-766 661-766 302 0 548 182 601 489h-190c-42-204-217-313-411-313-268 0-476 208-476 590 0 381 209 588 476 588 195 0 369-110 411-313h190c-52 303-296 489-601 489"/><path id="ae" d="m218-607c0-325 108-727 258-974h175c-155 315-250 682-250 974 0 265 78 531 250 886h-175c-170-289-258-594-258-886"/><path id="af" d="m180 0v-1490h528c311 0 458 177 458 395 0 191-114 278-244 313v14c139 9 302 137 302 371 0 225-148 397-499 397zm190-168h350c232 0 321-102 321-231 0-149-120-277-311-277h-360zm0-668h328c160 0 286-101 286-255 0-129-87-231-280-231h-334z"/><path id="ag" d="m128 418v-1536h295v188h14c41-89 129-202 319-202 248 0 453 193 453 575 0 372-197 576-455 576-183 0-275-108-317-198h-9v597zm534-640c156 0 240-139 240-336 0-196-83-334-240-334-154 0-241 131-241 334 0 202 88 336 241 336" fill="#635dff"/><path id="ah" d="m96 279c177-365 250-629 250-886 0-292-95-659-250-974h175c150 246 258 650 258 974 0 297-91 602-258 886z"/><path id="ai" d="m128 359 88-567h206l-156 567z"/><path id="aj" d="m678-1118v154h-258v964h-180v-964h-220v-154h220v-149c0-194 155-293 318-293 85 0 141 18 168 30l-50 154c-19-6-47-17-97-17-111 0-159 58-159 166v109z"/><path id="ak" d="m140 405 46-156c120 36 205 19 263-150l32-93-427-1124h197c107 313 237 620 324 950 87-331 219-637 326-950h196l-491 1285c-68 178-176 259-334 259-64 0-113-12-132-21"/><path id="al" d="m180 0v-1490h190v1322h690v168z"/><path id="am" d="m158 418v-1536h174v179h20c37-59 106-193 324-193 279 0 474 222 474 576 0 356-194 580-473 580-213 0-288-135-325-197h-14v591zm492-555c209 0 317-186 317-421 0-232-105-413-317-413-206 0-314 166-314 413 0 249 111 421 314 421"/><path id="an" d="m135 0v-1490h581c339 0 533 192 533 485 0 204-94 351-264 424l317 581h-338l-284-532h-240v532zm305-779h220c186 0 274-77 274-226 0-150-88-233-275-233h-219z"/><path id="ao" d="m789 20c-395 0-695-280-695-764 0-487 300-766 695-766s695 279 695 766c0 485-300 764-695 764zm0-271c231 0 385-174 385-493 0-321-154-495-385-495s-385 175-385 495c0 319 154 493 385 493"/><path id="ap" d="m659 0h-524v-1490h529c448 0 721 280 721 744 0 466-273 746-726 746zm-219-263h204c287 0 437-148 437-483 0-333-150-481-435-481h-206z"/><path id="aq" d="m750 21c-371 0-615-218-615-544v-967h305v942c0 174 123 299 310 299s309-125 309-299v-942h306v967c0 326-247 544-615 544"/><path id="ar" d="m786 20c-397 0-692-280-692-764 0-487 299-766 692-766 339 0 597 194 641 529h-309c-28-162-156-258-326-258-233 0-388 179-388 495 0 323 157 493 387 493 170 0 298-97 328-259h309c-34 277-266 530-642 530"/><path id="as" d="m135 0v-1490h997v253h-692v360h640v249h-640v375h694v253z"/><path id="at" d="m681 22c-358 0-587-167-596-484h297c10 151 131 226 296 226 163 0 271-77 271-190 0-102-95-149-257-189l-164-41c-252-61-403-188-403-405 0-269 236-449 560-449 330 0 546 183 551 445h-295c-11-119-106-188-259-188-156 0-244 72-244 172-3 156 226 185 373 221 250 61 445 186 445 436 0 271-213 446-575 446"/><path id="au" d="m440-1490v1490h-305v-1490z"/><g id="av"><use transform="scale(.00651042)" xlink:href="#at"/><use transform="matrix(.00651042 0 0 .00651042 8.730469 0)" xlink:href="#au"/><use transform="matrix(.00651042 0 0 .00651042 12.473958 0)" xlink:href="#ap"/><use transform="matrix(.00651042 0 0 .00651042 22.102865 0)" xlink:href="#as"/></g><path id="aw" d="m135 0v-1490h340l471 754c59 97 122 210 187 365-32-387-14-721-19-1119h312v1490h-341c-230-382-458-689-658-1113 32 420 16 695 20 1113z"/><path id="ax" d="m75-1237v-253h1217v253h-455v1237h-306v-1237z"/><path id="ay" d="m798-719v166h-654v-166z"/><path id="az" d="m677 24c-213 0-288-135-325-197h-20v173h-174v-1490h180v551h14c37-59 106-193 324-193 279 0 474 222 474 576 0 356-194 580-473 580zm-27-161c209 0 317-186 317-421 0-232-105-413-317-413-206 0-314 166-314 413 0 249 111 421 314 421"/><path id="aA" d="m692-1560-480 1784h-166l480-1784z"/><g id="aB"><use transform="scale(.01085069)" xlink:href="#m"/><use transform="matrix(.01085069 0 0 .01085069 13.357205 0)" xlink:href="#p"/><use transform="matrix(.01085069 0 0 .01085069 26.486545 0)" xlink:href="#v"/><use transform="matrix(.01085069 0 0 .01085069 40.093316 0)" xlink:href="#am"/><use transform="matrix(.01085069 0 0 .01085069 53.700087 0)" xlink:href="#w"/><use transform="matrix(.01085069 0 0 .01085069 67.02474 0)" xlink:href="#t"/><use transform="matrix(.01085069 0 0 .01085069 72.406684 0)" xlink:href="#p"/><use transform="matrix(.01085069 0 0 .01085069 85.536024 0)" xlink:href="#q"/></g><path id="aC" d="m653-1490v1490h-187v-1314h-10l-360 267v-204l324-239z"/><use id="aD" transform="scale(.01085069)" xlink:href="#aC"/><path id="aE" d="m295 13c-75 0-135-60-135-135s60-135 135-135 135 60 135 135-60 135-135 135"/><path id="aF" d="m158 0v-1490h180v865h22l478-493h223l-468 480 503 638h-231l-409-523-118 111v412z"/><path id="aG" d="m154 0v-137l495-537c165-179 249-281 249-418 0-156-121-253-280-253-170 0-278 110-278 278h-182c0-264 200-443 465-443 266 0 455 183 455 416 0 161-73 288-336 568l-326 347v12h687v167z"/><use id="aH" transform="scale(.01085069)" xlink:href="#aG"/></defs><g transform="translate(2638.205 1626.2)"><path d="m-1540.45-1603.48c16.57 0 30 13.43 30 30v180c0 16.57-13.43 30-30 30h-1040c-16.57 0-30-13.43-30-30v-180c0-16.57 13.43-30 30-30z" fill="#fff3d9" filter="url(#a)" stroke="#fc9432" stroke-width="2"/><path d="m-1540.45-1294.92c16.57 0 30 13.43 30 30v180c0 16.57-13.43 30-30 30h-1023.08c-16.57 0-30-13.43-30-30v-180c0-16.57 13.43-30 30-30z" fill="#edf5ff" filter="url(#b)" stroke="#1071e5" stroke-width="2"/><path d="m-875.96-1603.48c16.56 0 30 13.43 30 30v488.56c0 16.57-13.44 30-30 30h-551.92c-16.57 0-30-13.43-30-30v-488.56c0-16.57 13.43-30 30-30z" fill="#e3fae3" filter="url(#c)" stroke="#008a0e" stroke-width="2"/><g filter="url(#d)"><path d="m-2332.13-1537.48a6 6 0 0 1 6-6h148a6 6 0 0 1 6 6v108a6 6 0 0 1 -6 6h-148a6 6 0 0 1 -6-6z" fill="#fff3d9" stroke="#000"/><g transform="translate(-2281.5091 -1491.956)"><use transform="scale(.01085069)" xlink:href="#m"/><use transform="matrix(.01085069 0 0 .01085069 13.357205 0)" xlink:href="#n"/><use transform="matrix(.01085069 0 0 .01085069 25.412326 0)" xlink:href="#o"/><use transform="matrix(.01085069 0 0 .01085069 38.368056 0)" xlink:href="#p"/><use transform="matrix(.01085069 0 0 .01085069 51.497396 0)" xlink:href="#q"/></g><g transform="translate(-2303.102 -1459.6903)"><use transform="scale(.01085069)" xlink:href="#r"/><use transform="matrix(.01085069 0 0 .01085069 13.085938 0)" xlink:href="#s"/><use transform="matrix(.01085069 0 0 .01085069 21.799045 0)" xlink:href="#t"/><use transform="matrix(.01085069 0 0 .01085069 27.18099 0)" xlink:href="#u"/><use transform="matrix(.01085069 0 0 .01085069 40.809462 0)" xlink:href="#u"/><use transform="matrix(.01085069 0 0 .01085069 54.437934 0)" xlink:href="#o"/><use transform="matrix(.01085069 0 0 .01085069 67.393663 0)" xlink:href="#s"/><use transform="matrix(.01085069 0 0 .01085069 75.390625 0)" xlink:href="#o"/><use transform="matrix(.01085069 0 0 .01085069 88.346354 0)" xlink:href="#v"/></g></g><g filter="url(#e)"><path d="m-2092.54-1537.48a6 6 0 0 1 6-6h174.04a6 6 0 0 1 6 6v108a6 6 0 0 1 -6 6h-174.04a6 6 0 0 1 -6-6z" fill="#fff3d9" stroke="#000"/><use transform="translate(-2055.658 -1506.9247)" xlink:href="#y"/><g transform="translate(-2001.1983 -1506.9247)"><use transform="scale(.01085069)" xlink:href="#m"/><use transform="matrix(.01085069 0 0 .01085069 13.357205 0)" xlink:href="#n"/><use transform="matrix(.01085069 0 0 .01085069 25.412326 0)" xlink:href="#o"/><use transform="matrix(.01085069 0 0 .01085069 38.368056 0)" xlink:href="#p"/><use transform="matrix(.01085069 0 0 .01085069 51.497396 0)" xlink:href="#q"/></g><g transform="translate(-2077.9345 -1474.6591)"><use transform="scale(.01085069)" xlink:href="#z"/><use transform="matrix(.01085069 0 0 .01085069 14.257813 0)" xlink:href="#q"/><use transform="matrix(.01085069 0 0 .01085069 21.527778 0)" xlink:href="#s"/><use transform="matrix(.01085069 0 0 .01085069 29.52474 0)" xlink:href="#o"/><use transform="matrix(.01085069 0 0 .01085069 42.697483 0)" xlink:href="#A"/><use transform="matrix(.01085069 0 0 .01085069 55.175781 0)" xlink:href="#B"/></g><g transform="translate(-1997.0425 -1474.6591)"><use transform="scale(.01085069)" xlink:href="#C"/><use transform="matrix(.01085069 0 0 .01085069 14.192708 0)" xlink:href="#x"/><use transform="matrix(.01085069 0 0 .01085069 27.332899 0)" xlink:href="#D"/><use transform="matrix(.01085069 0 0 .01085069 39.0625 0)" xlink:href="#E"/><use transform="matrix(.01085069 0 0 .01085069 52.202691 0)" xlink:href="#o"/><use transform="matrix(.01085069 0 0 .01085069 65.15842 0)" xlink:href="#D"/></g><use transform="translate(-2055.3596 -1442.3935)" xlink:href="#F"/><use transform="translate(-2028.732 -1442.3935)" xlink:href="#H"/><g transform="translate(-1978.222 -1442.3935)"><use transform="scale(.01085069)" xlink:href="#I"/><use transform="matrix(.01085069 0 0 .01085069 15.332031 0)" xlink:href="#C"/><use transform="matrix(.01085069 0 0 .01085069 29.52474 0)" xlink:href="#J"/></g></g><g filter="url(#f)"><path d="m-1860-1537.48a6 6 0 0 1 6-6h288a6 6 0 0 1 6 6v108a6 6 0 0 1 -6 6h-288a6 6 0 0 1 -6-6z" fill="#fff" stroke="#000"/><g transform="translate(-1855 -1513.3709)"><use transform="scale(.00868056)" xlink:href="#K"/><use transform="matrix(.00868056 0 0 .00868056 10.668403 0)" xlink:href="#L"/><use transform="matrix(.00868056 0 0 .00868056 21.336806 0)" xlink:href="#M"/><use transform="matrix(.00868056 0 0 .00868056 32.005208 0)" xlink:href="#N"/><use transform="matrix(.00868056 0 0 .00868056 42.673611 0)" xlink:href="#O"/><use transform="matrix(.00868056 0 0 .00868056 53.342014 0)" xlink:href="#M"/><path d="m285-1169c8 382 2 780 4 1169h-160v-1349h237c86 239 188 461 253 720 69-258 169-481 255-720h225v1349h-162c2-390-5-788 6-1169-75 255-170 488-259 729h-137c-90-240-185-475-262-729" transform="matrix(.00868056 0 0 .00868056 64.010417 0)"/><use transform="matrix(.00868056 0 0 .00868056 74.678819 0)" xlink:href="#M"/><use transform="matrix(.00868056 0 0 .00868056 85.347222 0)" xlink:href="#P"/><use transform="matrix(.00868056 0 0 .00868056 96.015625 0)" xlink:href="#P"/><use transform="matrix(.00868056 0 0 .00868056 106.68403 0)" xlink:href="#N"/><path d="m1048-32c-2 300-135 456-433 456-222-1-358-88-400-267l184-25c22 99 100 157 222 156 184-2 248-125 248-315 0-64 3-133-2-194-60 121-161 208-343 209-306 0-381-228-381-537 0-318 85-550 400-550 164 0 271 83 325 202h3c1-60 3-134 12-185h171c-13 339-4 702-6 1050zm-463-113c210-8 284-178 284-406 0-192-52-331-177-392-33-16-69-22-104-22-223 2-259 184-259 414 0 229 31 415 256 406" transform="matrix(.00868056 0 0 .00868056 117.35243 0)"/><use transform="matrix(.00868056 0 0 .00868056 128.02083 0)" xlink:href="#M"/><path d="m891-1484c-201 251-362 514-362 954 0 441 161 704 362 955h-190c-201-249-359-515-359-957 0-440 159-704 359-952z" transform="matrix(.00868056 0 0 .00868056 138.68924 0)"/><path d="m677 91c1 136 41 195 171 195h213v139h-265c-186-8-294-116-294-303v-351c-3-164-120-222-275-232v-137c155-10 275-69 275-231v-352c6-189 106-303 294-303h265v139h-213c-126-3-171 67-171 195v346c-5 158-108 234-231 274 128 36 231 115 231 274z" transform="matrix(.00868056 0 0 .00868056 149.35764 0)"/></g><g transform="translate(-1833.6632 -1489.2042)"><use transform="scale(.00868056)" xlink:href="#M"/><use transform="matrix(.00868056 0 0 .00868056 10.668403 0)" xlink:href="#Q"/><use transform="matrix(.00868056 0 0 .00868056 21.336806 0)" xlink:href="#M"/><use transform="matrix(.00868056 0 0 .00868056 32.005208 0)" xlink:href="#R"/><use transform="matrix(.00868056 0 0 .00868056 42.673611 0)" xlink:href="#O"/><path d="m709-1193v1193h-190v-1193h-443v-156h1076v156z" transform="matrix(.00868056 0 0 .00868056 53.342014 0)"/><path d="m168 279c222 39 310-114 368-290l-470-1071h192c120 299 249 590 362 896 115-301 235-597 351-896h190l-456 1082c-65 164-130 320-275 396-67 36-177 35-262 18z" transform="matrix(.00868056 0 0 .00868056 64.010417 0)"/><use transform="matrix(.00868056 0 0 .00868056 74.678819 0)" xlink:href="#S"/><use transform="matrix(.00868056 0 0 .00868056 85.347222 0)" xlink:href="#M"/><use transform="matrix(.00868056 0 0 .00868056 96.015625 0)" xlink:href="#T"/><use transform="matrix(.00868056 0 0 .00868056 106.68403 0)" xlink:href="#U"/><use transform="matrix(.00868056 0 0 .00868056 117.35243 0)" xlink:href="#V"/><use transform="matrix(.00868056 0 0 .00868056 128.02083 0)" xlink:href="#R"/><use transform="matrix(.00868056 0 0 .00868056 138.68924 0)" xlink:href="#Q"/><use transform="matrix(.00868056 0 0 .00868056 149.35764 0)" xlink:href="#W"/><use transform="matrix(.00868056 0 0 .00868056 160.02604 0)" xlink:href="#V"/><use transform="matrix(.00868056 0 0 .00868056 170.69444 0)" xlink:href="#K"/><use transform="matrix(.00868056 0 0 .00868056 181.36285 0)" xlink:href="#M"/><path d="m496 0v-299h235v299z" transform="matrix(.00868056 0 0 .00868056 192.03125 0)"/><use transform="matrix(.00868056 0 0 .00868056 202.69965 0)" xlink:href="#S"/><use transform="matrix(.00868056 0 0 .00868056 213.36806 0)" xlink:href="#N"/><use transform="matrix(.00868056 0 0 .00868056 224.03646 0)" xlink:href="#V"/><path d="m865-914c-3-187-2-380-2-570h180v1261c0 76 1 155 6 223h-172c-8-49-9-116-10-174h-5c-61 130-154 200-332 200-135 0-234-46-297-139s-95-232-95-419c0-377 131-566 392-566 176 0 271 63 335 184zm-286-51c-222 0-255 197-255 427 0 229 31 425 253 425 237 0 286-195 286-441 0-238-52-411-284-411" transform="matrix(.00868056 0 0 .00868056 234.70486 0)"/><use transform="matrix(.00868056 0 0 .00868056 245.37326 0)" xlink:href="#U"/></g><g transform="translate(-1833.6632 -1465.0376)"><path d="m775-193c-67 118-154 213-336 213-213 0-333-113-333-326 0-251 170-341 417-346l223-4c4-143-12-264-148-264-103 0-141 58-150 153l-293-14c37-219 194-321 455-321 263 0 418 130 417 390v392c1 84 5 161 89 160 21 0 42-2 62-6v152c-57 15-108 27-180 26-145 0-202-73-217-205zm-256 17c168 0 234-139 227-325-166 4-347-25-347 173 0 94 33 152 120 152" fill="#635dff" transform="scale(.00868056)"/><use transform="matrix(.00868056 0 0 .00868056 10.668403 0)" xlink:href="#X"/><use transform="matrix(.00868056 0 0 .00868056 21.336806 0)" xlink:href="#X"/><path d="m157-1349h916v228h-316v893h316v228h-916v-228h316v-893h-316z" fill="#635dff" transform="matrix(.00868056 0 0 .00868056 32.005208 0)"/><path d="m802-909c-3-189-2-383-2-575h281v1248c-1 83 4 168 8 236h-272c-9-50-14-117-15-176h-4c-63 127-147 196-316 196-291 0-385-258-385-559 0-243 66-432 221-519 50-28 108-42 175-42 162 2 253 78 309 191zm-70 658c91-113 93-462 2-584-46-61-145-100-224-53-96 56-119 190-120 349 0 123 17 214 52 275 46 82 130 115 222 74 25-12 46-33 68-61" fill="#635dff" transform="matrix(.00868056 0 0 .00868056 42.673611 0)"/><use transform="matrix(.00868056 0 0 .00868056 53.342014 0)" xlink:href="#T"/></g><g transform="translate(-1758.9844 -1465.0376)"><use transform="scale(.00868056)" xlink:href="#U"/><use transform="matrix(.00868056 0 0 .00868056 10.668403 0)" xlink:href="#K"/><path d="m528 20c-247 0-343-132-343-381v-721h180v686c-4 177 45 284 224 277 194-8 279-136 279-336v-627h181c3 360-6 732 6 1082h-170c-4-54-7-126-8-185h-3c-65 121-160 205-346 205" transform="matrix(.00868056 0 0 .00868056 21.336806 0)"/><use transform="matrix(.00868056 0 0 .00868056 32.005208 0)" xlink:href="#P"/><use transform="matrix(.00868056 0 0 .00868056 42.673611 0)" xlink:href="#O"/><use transform="matrix(.00868056 0 0 .00868056 53.342014 0)" xlink:href="#W"/><path d="m904-1102c199 0 220 177 220 381v721h-168v-686c-3-114 0-215-60-264-70-33-125-4-158 71-26 56-39 140-39 252v627h-168v-686c-3-114-1-215-61-264-78-41-136 24-157 84-24 69-39 159-39 259v607h-169c-3-360 6-732-6-1082h149c6 50 3 123 8 175 36-100 83-195 216-195 135 0 166 79 196 196 42-105 93-196 236-196" transform="matrix(.00868056 0 0 .00868056 64.010417 0)"/><use transform="matrix(.00868056 0 0 .00868056 74.678819 0)" xlink:href="#M"/><use transform="matrix(.00868056 0 0 .00868056 85.347222 0)" xlink:href="#L"/><path d="m-5 220v-96h1238v96z" transform="matrix(.00868056 0 0 .00868056 96.015625 0)"/><path d="m148-1120c216-7 379-89 463-229h166v1204h353v145h-973v-145h439v-1021c-79 124-254 184-448 194z" transform="matrix(.00868056 0 0 .00868056 106.68403 0)"/><use transform="matrix(.00868056 0 0 .00868056 117.35243 0)" xlink:href="#U"/></g><path d="m726 122c-7 187-108 303-294 303h-265v-139h213c129-2 172-59 172-195v-347c5-160 106-236 230-276-125-36-230-116-230-272v-346c2-128-45-195-172-195h-213v-139h265c187 7 294 114 294 303v352c4 162 120 221 275 231v137c-155 10-275 68-275 232z" transform="matrix(.00868056 0 0 .00868056 -1855 -1440.8709)"/><path d="m528-1484c201 248 357 511 357 952 0 442-156 709-357 957h-192c201-251 364-514 364-955 0-440-163-703-364-954z" transform="matrix(.00868056 0 0 .00868056 -1844.331597 -1440.8709)"/></g><path d="m-2410.7-1483.48h61.7" fill="none" stroke="#3a414a"/><path d="m-2410.7-1483h-.54l.03-.48-.02-.48h.53z" fill="#3a414a" stroke="#3a414a" stroke-width=".05"/><path d="m-2334.24-1483.48-14.27 4.63v-9.27z" fill="#3a414a" stroke="#3a414a"/><path d="m-2171.13-1483.48h61.7" fill="none" stroke="#3a414a"/><path d="m-2171.1-1483h-.53v-.96h.52z" fill="#3a414a" stroke="#3a414a" stroke-width=".05"/><path d="m-2094.66-1483.48-14.27 4.63v-9.27z" fill="#3a414a" stroke="#3a414a"/><g filter="url(#g)"><path d="m-2451.7-1523.48c22.1 0 40 17.9 40 40s-17.9 40-40 40h-80c-22.1 0-40-17.9-40-40s17.9-40 40-40z" fill="#fff3d9" stroke="#000"/><use transform="translate(-2558.6606 -1475.081)" xlink:href="#y"/><g transform="translate(-2504.2009 -1475.081)"><use transform="scale(.01085069)" xlink:href="#z"/><use transform="matrix(.01085069 0 0 .01085069 14.257813 0)" xlink:href="#o"/><use transform="matrix(.01085069 0 0 .01085069 27.213542 0)" xlink:href="#s"/><use transform="matrix(.01085069 0 0 .01085069 35.926649 0)" xlink:href="#n"/><use transform="matrix(.01085069 0 0 .01085069 48.415799 0)" xlink:href="#t"/><use transform="matrix(.01085069 0 0 .01085069 53.797743 0)" xlink:href="#Y"/><use transform="matrix(.01085069 0 0 .01085069 66.493056 0)" xlink:href="#o"/></g></g><path d="m-1905.5-1483.48h28.62" fill="none" stroke="#3a414a"/><path d="m-1905.5-1483h-.5v-.96h.5z" fill="#3a414a" stroke="#3a414a" stroke-width=".05"/><path d="m-1862.12-1483.48-14.26 4.63v-9.27z" fill="#3a414a" stroke="#3a414a"/><g filter="url(#h)"><path d="m-2548.9-1228.92a6 6 0 0 1 6-6h158.16a6 6 0 0 1 6 6v108a6 6 0 0 1 -6 6h-158.15a6 6 0 0 1 -6-6z" fill="#edf5ff" stroke="#000"/><g transform="translate(-2535.9936 -1183.3917)"><use transform="scale(.01085069)" xlink:href="#z"/><use transform="matrix(.01085069 0 0 .01085069 14.257813 0)" xlink:href="#n"/><use transform="matrix(.01085069 0 0 .01085069 26.746962 0)" xlink:href="#t"/><use transform="matrix(.01085069 0 0 .01085069 32.128906 0)" xlink:href="#G"/></g><g transform="translate(-2485.4836 -1183.3917)"><use transform="scale(.01085069)" xlink:href="#Z"/><use transform="matrix(.01085069 0 0 .01085069 13.975694 0)" xlink:href="#o"/><use transform="matrix(.01085069 0 0 .01085069 26.931424 0)" xlink:href="#Y"/><use transform="matrix(.01085069 0 0 .01085069 39.626736 0)" xlink:href="#o"/><use transform="matrix(.01085069 0 0 .01085069 52.582465 0)" xlink:href="#t"/><use transform="matrix(.01085069 0 0 .01085069 57.96441 0)" xlink:href="#n"/><use transform="matrix(.01085069 0 0 .01085069 70.019531 0)" xlink:href="#o"/><use transform="matrix(.01085069 0 0 .01085069 82.97526 0)" xlink:href="#D"/></g><g transform="translate(-2492.7699 -1151.1261)"><use transform="scale(.01085069)" xlink:href="#m"/><use transform="matrix(.01085069 0 0 .01085069 13.357205 0)" xlink:href="#n"/><use transform="matrix(.01085069 0 0 .01085069 25.412326 0)" xlink:href="#o"/><use transform="matrix(.01085069 0 0 .01085069 38.368056 0)" xlink:href="#p"/><use transform="matrix(.01085069 0 0 .01085069 51.497396 0)" xlink:href="#q"/></g></g><path d="m-1558.5-1483.48h70.08a6 6 0 0 1 6 6v147.42a6 6 0 0 1 -6 6h-1119.05a6 6 0 0 0 -6 6v137.14a6 6 0 0 0 6 6h39.58" fill="none" stroke="#3a414a" stroke-width="2"/><path d="m-1558.47-1482.5h-1.03v-1.96h1.03z" fill="#3a414a" stroke="#3a414a" stroke-width=".05"/><path d="m-2552.62-1174.92-14.27 4.64v-9.28z" fill="#3a414a" stroke="#3a414a" stroke-width="2"/><g filter="url(#i)"><path d="m-2315.7-1228.92a6 6 0 0 1 6-6h207.33a6 6 0 0 1 6 6v108a6 6 0 0 1 -6 6h-207.32a6 6 0 0 1 -6-6z" fill="#edf5ff" stroke="#000"/><use transform="translate(-2299.3398 -1198.3604)" xlink:href="#ab"/><use transform="translate(-2221.1714 -1198.3604)" xlink:href="#F"/><g transform="translate(-2194.5438 -1198.3604)"><use transform="scale(.01085069)" xlink:href="#J"/><use transform="matrix(.01085069 0 0 .01085069 5.967882 0)" xlink:href="#D"/><use transform="matrix(.01085069 0 0 .01085069 17.697483 0)" xlink:href="#w"/><use transform="matrix(.01085069 0 0 .01085069 31.022135 0)" xlink:href="#ac"/><use transform="matrix(.01085069 0 0 .01085069 36.40408 0)" xlink:href="#A"/><use transform="matrix(.01085069 0 0 .01085069 48.882378 0)" xlink:href="#q"/><use transform="matrix(.01085069 0 0 .01085069 55.93533 0)" xlink:href="#o"/><use transform="matrix(.01085069 0 0 .01085069 68.891059 0)" xlink:href="#v"/></g><g transform="translate(-2265.7297 -1166.0948)"><use transform="scale(.01085069)" xlink:href="#ad"/><use transform="matrix(.01085069 0 0 .01085069 16.232639 0)" xlink:href="#w"/><use transform="matrix(.01085069 0 0 .01085069 29.557292 0)" xlink:href="#p"/><use transform="matrix(.01085069 0 0 .01085069 42.686632 0)" xlink:href="#D"/><use transform="matrix(.01085069 0 0 .01085069 54.416233 0)" xlink:href="#x"/><use transform="matrix(.01085069 0 0 .01085069 67.556424 0)" xlink:href="#B"/><use transform="matrix(.01085069 0 0 .01085069 87.022569 0)" xlink:href="#o"/><use transform="matrix(.01085069 0 0 .01085069 99.978299 0)" xlink:href="#s"/><use transform="matrix(.01085069 0 0 .01085069 108.34418 0)" xlink:href="#D"/></g><g transform="translate(-2296.5132 -1133.8292)"><use transform="scale(.01085069)" xlink:href="#ae"/><use transform="matrix(.01085069 0 0 .01085069 8.105469 0)" xlink:href="#af"/><use transform="matrix(.01085069 0 0 .01085069 22.645399 0)" xlink:href="#A"/><use transform="matrix(.01085069 0 0 .01085069 35.123698 0)" xlink:href="#D"/><use transform="matrix(.01085069 0 0 .01085069 46.853299 0)" xlink:href="#o"/><use transform="matrix(.01085069 0 0 .01085069 59.809028 0)" xlink:href="#v"/></g><g transform="translate(-2216.8474 -1133.8292)"><use transform="scale(.01085069)" xlink:href="#w"/><use transform="matrix(.01085069 0 0 .01085069 13.324653 0)" xlink:href="#p"/></g><g transform="translate(-2184.1434 -1133.8292)"><path d="m440 22c-213 0-372-114-372-335 0-250 202-322 422-343 195-21 271-24 271-105 0-95-63-149-175-149-116 0-187 57-211 129l-275-46c57-194 237-305 487-305 240 0 474 108 474 379v753h-284v-155h-10c-54 104-162 177-327 177zm85-211c140 0 238-93 238-211v-121c-37 26-156 42-222 51-111 16-185 59-185 149 0 87 70 132 169 132" fill="#635dff" transform="scale(.01085069)"/><use transform="matrix(.01085069 0 0 .01085069 12.901476 0)" xlink:href="#ag"/><use transform="matrix(.01085069 0 0 .01085069 26.909722 0)" xlink:href="#ag"/><path d="m440-1490v1490h-305v-1490z" fill="#635dff" transform="matrix(.01085069 0 0 .01085069 40.917969 0)"/><path d="m537 19c-258 0-456-204-456-576 0-382 206-575 454-575 190 0 278 113 318 202h10v-560h300v1490h-295v-179h-15c-41 90-134 198-316 198zm92-241c153 0 240-134 240-336 0-203-86-334-240-334-158 0-240 138-240 334 0 197 84 336 240 336" fill="#635dff" transform="matrix(.01085069 0 0 .01085069 47.157118 0)"/><use transform="matrix(.01085069 0 0 .01085069 61.165365 0)" xlink:href="#ah"/></g></g><path d="m-2377.74-1174.92h45.16" fill="none" stroke="#3a414a"/><path d="m-2377.73-1174.44h-.5v-.95h.5z" fill="#3a414a" stroke="#3a414a" stroke-width=".05"/><path d="m-2317.8-1174.92-14.28 4.64v-9.28z" fill="#3a414a" stroke="#3a414a"/><g filter="url(#j)"><path d="m-2033.32-1228.92a6 6 0 0 1 6-6h187.13a6 6 0 0 1 6 6v108a6 6 0 0 1 -6 6h-187.12a6 6 0 0 1 -6-6z" fill="#edf5ff" stroke="#000"/><g transform="translate(-2009.0143 -1198.3917)"><use transform="scale(.01085069)" xlink:href="#r"/><use transform="matrix(.01085069 0 0 .01085069 14.344618 0)" xlink:href="#E"/><use transform="matrix(.01085069 0 0 .01085069 27.484809 0)" xlink:href="#s"/><use transform="matrix(.01085069 0 0 .01085069 35.481771 0)" xlink:href="#w"/><use transform="matrix(.01085069 0 0 .01085069 48.806424 0)" xlink:href="#q"/><use transform="matrix(.01085069 0 0 .01085069 55.533854 0)" xlink:href="#q"/><use transform="matrix(.01085069 0 0 .01085069 62.803819 0)" xlink:href="#ac"/><use transform="matrix(.01085069 0 0 .01085069 68.185764 0)" xlink:href="#o"/><use transform="matrix(.01085069 0 0 .01085069 81.141493 0)" xlink:href="#ai"/></g><g transform="translate(-1915.2209 -1198.3917)"><use transform="scale(.01085069)" xlink:href="#aa"/><use transform="matrix(.01085069 0 0 .01085069 13.11849 0)" xlink:href="#t"/><use transform="matrix(.01085069 0 0 .01085069 18.500434 0)" xlink:href="#ac"/><use transform="matrix(.01085069 0 0 .01085069 24.207899 0)" xlink:href="#q"/><use transform="matrix(.01085069 0 0 .01085069 31.260851 0)" xlink:href="#o"/><use transform="matrix(.01085069 0 0 .01085069 44.21658 0)" xlink:href="#s"/><use transform="matrix(.01085069 0 0 .01085069 51.193576 0)" xlink:href="#ai"/></g><g transform="translate(-2021.281 -1166.1261)"><use transform="scale(.01085069)" xlink:href="#r"/><use transform="matrix(.01085069 0 0 .01085069 13.085938 0)" xlink:href="#s"/><use transform="matrix(.01085069 0 0 .01085069 21.451823 0)" xlink:href="#A"/><use transform="matrix(.01085069 0 0 .01085069 33.930122 0)" xlink:href="#p"/><use transform="matrix(.01085069 0 0 .01085069 47.059462 0)" xlink:href="#D"/><use transform="matrix(.01085069 0 0 .01085069 58.789062 0)" xlink:href="#aj"/><use transform="matrix(.01085069 0 0 .01085069 66.362847 0)" xlink:href="#w"/><use transform="matrix(.01085069 0 0 .01085069 79.6875 0)" xlink:href="#s"/><use transform="matrix(.01085069 0 0 .01085069 88.400608 0)" xlink:href="#B"/><use transform="matrix(.01085069 0 0 .01085069 107.86675 0)" xlink:href="#ai"/></g><g transform="translate(-1900.7624 -1166.1261)"><use transform="scale(.01085069)" xlink:href="#Z"/><use transform="matrix(.01085069 0 0 .01085069 13.975694 0)" xlink:href="#o"/><use transform="matrix(.01085069 0 0 .01085069 26.931424 0)" xlink:href="#q"/><use transform="matrix(.01085069 0 0 .01085069 34.201389 0)" xlink:href="#s"/><use transform="matrix(.01085069 0 0 .01085069 42.914497 0)" xlink:href="#ak"/></g><g transform="translate(-1990.9045 -1133.8604)"><use transform="scale(.01085069)" xlink:href="#ae"/><use transform="matrix(.01085069 0 0 .01085069 8.105469 0)" xlink:href="#A"/><use transform="matrix(.01085069 0 0 .01085069 20.583767 0)" xlink:href="#p"/><use transform="matrix(.01085069 0 0 .01085069 33.713108 0)" xlink:href="#v"/></g><g transform="translate(-1937.3346 -1133.8604)"><use transform="scale(.01085069)" xlink:href="#B"/><use transform="matrix(.01085069 0 0 .01085069 19.466146 0)" xlink:href="#w"/><use transform="matrix(.01085069 0 0 .01085069 32.790799 0)" xlink:href="#s"/><use transform="matrix(.01085069 0 0 .01085069 40.78776 0)" xlink:href="#o"/><use transform="matrix(.01085069 0 0 .01085069 53.493924 0)" xlink:href="#ah"/></g></g><g filter="url(#j)"><path d="m-1771.14-1228.92a6 6 0 0 1 6-6h187.12a6 6 0 0 1 6 6v108a6 6 0 0 1 -6 6h-187.12a6 6 0 0 1 -6-6z" fill="#edf5ff" stroke="#000"/><use transform="translate(-1720.4164 -1198.3917)" xlink:href="#ab"/><g transform="translate(-1642.248 -1198.3917)"><use transform="scale(.01085069)" xlink:href="#q"/><use transform="matrix(.01085069 0 0 .01085069 7.052951 0)" xlink:href="#w"/></g><g transform="translate(-1718.6207 -1166.1261)"><use transform="scale(.01085069)" xlink:href="#al"/><use transform="matrix(.01085069 0 0 .01085069 12.565104 0)" xlink:href="#t"/><use transform="matrix(.01085069 0 0 .01085069 17.947049 0)" xlink:href="#D"/><use transform="matrix(.01085069 0 0 .01085069 29.676649 0)" xlink:href="#q"/><use transform="matrix(.01085069 0 0 .01085069 36.729601 0)" xlink:href="#o"/><use transform="matrix(.01085069 0 0 .01085069 49.68533 0)" xlink:href="#p"/><use transform="matrix(.01085069 0 0 .01085069 62.81467 0)" xlink:href="#t"/><use transform="matrix(.01085069 0 0 .01085069 68.196615 0)" xlink:href="#p"/><use transform="matrix(.01085069 0 0 .01085069 81.325955 0)" xlink:href="#u"/></g><g transform="translate(-1723.3027 -1133.8604)"><use transform="scale(.01085069)" xlink:href="#m"/><use transform="matrix(.01085069 0 0 .01085069 13.357205 0)" xlink:href="#p"/><use transform="matrix(.01085069 0 0 .01085069 26.486545 0)" xlink:href="#v"/><use transform="matrix(.01085069 0 0 .01085069 40.093316 0)" xlink:href="#am"/><use transform="matrix(.01085069 0 0 .01085069 53.700087 0)" xlink:href="#w"/><use transform="matrix(.01085069 0 0 .01085069 67.02474 0)" xlink:href="#t"/><use transform="matrix(.01085069 0 0 .01085069 72.406684 0)" xlink:href="#p"/><use transform="matrix(.01085069 0 0 .01085069 85.536024 0)" xlink:href="#q"/><use transform="matrix(.01085069 0 0 .01085069 92.588976 0)" xlink:href="#D"/></g></g><path d="m-2095.37-1174.92h45.17" fill="none" stroke="#3a414a"/><path d="m-2095.36-1174.44h-.5v-.95h.5z" fill="#3a414a" stroke="#3a414a" stroke-width=".05"/><path d="m-2035.44-1174.92-14.26 4.64v-9.28z" fill="#3a414a" stroke="#3a414a"/><path d="m-1833.2-1174.92h45.17" fill="none" stroke="#3a414a"/><path d="m-1833.18-1174.44h-.5v-.95h.5z" fill="#3a414a" stroke="#3a414a" stroke-width=".05"/><path d="m-1773.26-1174.92-14.27 4.64v-9.28z" fill="#3a414a" stroke="#3a414a"/><path d="m-2593.53-1577.8a6 6 0 0 1 6-6h131.53a6 6 0 0 1 6 6v15.85a6 6 0 0 1 -6 6h-131.53a6 6 0 0 1 -6-6z" fill="#fff" stroke="#000" stroke-width=".5"/><g transform="translate(-2561.6667 -1564.769)"><path d="m135 0v-1490h581c339 0 533 210 533 503 0 295-197 500-540 500h-269v487zm305-733h220c186 0 274-104 274-254s-88-251-275-251h-219z" transform="scale(.00651042)"/><use transform="matrix(.00651042 0 0 .00651042 8.639323 0)" xlink:href="#an"/><use transform="matrix(.00651042 0 0 .00651042 17.395833 0)" xlink:href="#ao"/><use transform="matrix(.00651042 0 0 .00651042 27.669271 0)" xlink:href="#ap"/><use transform="matrix(.00651042 0 0 .00651042 37.298177 0)" xlink:href="#aq"/><use transform="matrix(.00651042 0 0 .00651042 47.057292 0)" xlink:href="#ar"/><use transform="matrix(.00651042 0 0 .00651042 56.920573 0)" xlink:href="#as"/><use transform="matrix(.00651042 0 0 .00651042 65.019531 0)" xlink:href="#an"/></g><use transform="translate(-2484.7331 -1564.769)" xlink:href="#av"/><path d="m-2584.73-1562.18h15.2c.4 0 .7.3.7.7 0 .37-.3.68-.7.68h-15.2zm14.51-15.89v6.9c0 .4.3.7.7.7.38 0 .7-.3.7-.7v-5.5c0-.78-.63-1.4-1.4-1.4z" fill="#605863"/><path d="m-2570.22-1578.07h-4.15c-.38 0-.7.3-.7.7 0 .38.32.68.7.68l4.15.02z" fill="#89766b"/><path d="m-2568.84-1571.85h-5.53c-.38 0-.7.3-.7.7 0 .38.32.7.7.7h5.53zm-16.59 0h5.53c.38 0 .7.3.7.7 0 .38-.32.7-.7.7h-5.53z" fill="#605863"/><path d="m-2584.05-1578.07v6.9c0 .4-.3.7-.7.7-.37 0-.68-.3-.68-.7v-5.5c0-.78.62-1.4 1.38-1.4z" fill="#605863"/><path d="m-2584.05-1578.07h4.15c.38 0 .7.3.7.7 0 .38-.32.68-.7.68l-4.15.02z" fill="#89766b"/><path d="m-2570.4-1569.08v7.52c0 .43.36.78.8.78.42 0 .77-.35.77-.78v-5.96c0-.86-.7-1.56-1.56-1.56z" fill="#605863"/><path d="m-2570.4-1569.08h-3.9c-.42 0-.76.34-.76.76s.34.75.76.75h3.9v-1.5z" fill="#89766b"/><path d="m-2583.87-1569.08v7.52c0 .43-.35.78-.78.78s-.78-.35-.78-.78v-5.96c0-.86.7-1.56 1.56-1.56z" fill="#605863"/><path d="m-2583.88-1569.08h3.92c.42 0 .75.34.75.76s-.34.75-.76.75h-3.92v-1.5z" fill="#89766b"/><path d="m-2573-1573.5h-3.02v3.03h-1.52v-3.04h-3.04v-1.53h3.04v-3.04h1.52v3.04h3.03v1.52zm-1.06 8.18c.4-.4 1.06-.4 1.47 0 .4.4.4 1.06 0 1.46s-1.05.4-1.46 0c-.4-.4-.4-1.06 0-1.46zm-3.82 1.46c-.4-.4-.4-1.06 0-1.46s1.06-.4 1.47 0c.4.4.4 1.06 0 1.46-.42.4-1.07.4-1.48 0" fill="#605863"/><path d="m-2577.88-1567.3c-.4-.4-.4-1.07 0-1.47s1.06-.4 1.47 0c.4.4.4 1.06 0 1.47-.42.4-1.07.4-1.48 0" fill="#89766b"/><path d="m-2581.68-1563.86c-.4-.4-.4-1.06 0-1.46s1.07-.4 1.47 0 .4 1.06 0 1.46-1.07.4-1.48 0" fill="#605863"/><path d="m-2585.97-1578.6v17.45h17.46v-17.46z" fill="none"/><path d="m-2578.03-1272.04a6 6 0 0 1 6-6h181.55a6 6 0 0 1 6 6v14.95a6 6 0 0 1 -6 6h-181.55a6 6 0 0 1 -6-6z" fill="#fff" stroke="#000" stroke-width=".5"/><g transform="translate(-2546.227 -1259.0637)"><use transform="scale(.00651042)" xlink:href="#at"/><path d="m571 0-522-1490h339c138 427 271 775 384 1244 111-471 237-815 371-1244h337l-510 1490z" transform="matrix(.00651042 0 0 .00651042 8.730469 0)"/><use transform="matrix(.00651042 0 0 .00651042 18.684896 0)" xlink:href="#au"/><path d="m51 0 535-762-487-728h354c99 152 240 357 306 516 68-159 211-365 312-516h346l-483 719 527 771h-362c-106-164-261-379-343-546-82 168-243 383-352 546z" transform="matrix(.00651042 0 0 .00651042 22.428385 0)"/></g><g transform="translate(-2510.7973 -1259.0637)"><use transform="scale(.00651042)" xlink:href="#au"/><use transform="matrix(.00651042 0 0 .00651042 3.74349 0)" xlink:href="#aw"/><path d="m135 0v-1490h980v253h-675v416h609v249h-609v572z" transform="matrix(.00651042 0 0 .00651042 13.90625 0)"/><use transform="matrix(.00651042 0 0 .00651042 21.731771 0)" xlink:href="#an"/><path d="m49 0 509-1490h400l522 1490h-339l-115-346h-529l-111 346zm524-585h374c-75-213-124-402-192-666-66 268-110 453-182 666" transform="matrix(.00651042 0 0 .00651042 30.488281 0)"/><use transform="matrix(.00651042 0 0 .00651042 40.240885 0)" xlink:href="#at"/><use transform="matrix(.00651042 0 0 .00651042 48.971354 0)" xlink:href="#ax"/><use transform="matrix(.00651042 0 0 .00651042 57.871094 0)" xlink:href="#an"/><use transform="matrix(.00651042 0 0 .00651042 66.627604 0)" xlink:href="#aq"/><use transform="matrix(.00651042 0 0 .00651042 76.386719 0)" xlink:href="#ar"/><use transform="matrix(.00651042 0 0 .00651042 86.25 0)" xlink:href="#ax"/><use transform="matrix(.00651042 0 0 .00651042 95.14974 0)" xlink:href="#aq"/><use transform="matrix(.00651042 0 0 .00651042 104.90885 0)" xlink:href="#an"/><use transform="matrix(.00651042 0 0 .00651042 113.66536 0)" xlink:href="#as"/></g><path d="m-2555.36-1270.92c-.64.3-1.4.56-2.23.76-.37-1.25-.9-2.3-1.5-3.03 1.43.45 2.72 1.23 3.74 2.28zm-1.5 5.66c-.05-1.45-.2-2.8-.5-4 1-.24 1.9-.56 2.64-.96 1.1 1.4 1.83 3.1 1.97 4.96h-4.12zm-.63 5.5c.37-1.34.6-2.9.63-4.57h4.14c-.06 2.07-.82 4-2.05 5.5-.76-.38-1.7-.7-2.7-.94zm-.25.9c.86.17 1.63.43 2.3.75-1.1 1.06-2.46 1.86-4 2.26.7-.7 1.26-1.74 1.7-3.03zm-7.47.07c.48 1.34 1.1 2.42 1.84 3.12-1.66-.32-3.15-1.08-4.36-2.15.67-.4 1.55-.72 2.52-.96zm-.9-5.53c.05 1.7.27 3.3.65 4.64-1.16.3-2.17.7-2.95 1.2-1.4-1.55-2.3-3.6-2.35-5.83h4.66zm.5-5c-.3 1.2-.47 2.57-.5 4.07h-4.63c.16-2.03.97-3.86 2.25-5.3.76.5 1.75.92 2.9 1.22zm.24-.9c-.95-.25-1.8-.6-2.44-.98 1.13-1.05 2.53-1.8 4.06-2.16-.66.73-1.22 1.8-1.6 3.12zm.18 4.97c.04-1.45.2-2.77.48-3.88 1.06.2 2.2.32 3.4.32 1.06 0 2.1-.1 3.07-.26.26 1.1.42 2.38.44 3.82h-7.4zm6.54 6.23c-.72 2.05-1.8 3.27-2.83 3.27-1 0-2.08-1.2-2.8-3.23.94-.15 1.93-.25 3-.25.9 0 1.8.08 2.64.22zm-2.65-1.13c-1.15 0-2.26.1-3.28.3-.36-1.28-.62-2.77-.64-4.47h7.4c-.03 1.66-.23 3.15-.57 4.4-.92-.15-1.9-.23-2.9-.23zm0-13.4c1.06.13 2.12 1.4 2.8 3.58-.88.14-1.84.22-2.8.22-1.13 0-2.2-.1-3.18-.28.72-2.2 1.83-3.5 2.9-3.54.1 0 .2 0 .3.02zm.07-.94-.26-.02h-.25c-5.5 0-9.96 4.46-9.96 9.96s4.45 9.95 9.95 9.95 9.95-4.47 9.95-9.96c0-5.32-4.18-9.66-9.43-9.94z" fill="#232f3e"/><path d="m-1441.6-1577.8a6 6 0 0 1 6-6h131.5a6 6 0 0 1 6 6v15.85a6 6 0 0 1 -6 6h-131.5a6 6 0 0 1 -6-6z" fill="#fff" stroke="#000" stroke-width=".5"/><g transform="translate(-1414.0385 -1564.769)"><use transform="scale(.00651042)" xlink:href="#ar"/><use transform="matrix(.00651042 0 0 .00651042 9.863281 0)" xlink:href="#ao"/><use transform="matrix(.00651042 0 0 .00651042 20.136719 0)" xlink:href="#aw"/><use transform="matrix(.00651042 0 0 .00651042 30.299479 0)" xlink:href="#at"/><use transform="matrix(.00651042 0 0 .00651042 39.029948 0)" xlink:href="#aq"/><path d="m135 0v-1490h468l242 684c30 94 76 293 111 455 34-161 80-360 110-455l238-684h470v1490h-307c0-447-3-765 11-1227-122 503-246 788-395 1227h-257c-150-435-274-717-399-1215 15 453 11 775 11 1215z" transform="matrix(.00651042 0 0 .00651042 48.789063 0)"/><use transform="matrix(.00651042 0 0 .00651042 61.210937 0)" xlink:href="#as"/><use transform="matrix(.00651042 0 0 .00651042 69.309896 0)" xlink:href="#an"/></g><use transform="translate(-1332.8146 -1564.769)" xlink:href="#av"/><path d="m-1425.77-1575.35c0-1.1.9-2 2-2s2 .9 2 2c0 1.08-.9 1.96-2 1.96s-2-.87-2-1.95zm4.3 2.62c-.24-.15-.5-.28-.76-.38.73-.5 1.2-1.32 1.2-2.25 0-1.5-1.22-2.72-2.73-2.72-1.52 0-2.75 1.2-2.75 2.72 0 .93.46 1.75 1.2 2.24-.47.17-.92.43-1.33.78l.5.55c.67-.57 1.5-.88 2.36-.88.67 0 1.32.2 1.9.54 1.03.63 1.7 1.74 1.8 2.95h-3.7v.76h4.1c.2 0 .37-.15.37-.37 0-1.62-.84-3.13-2.18-3.96zm-11.74-2.62c0-1.1.9-2 2-2s2 .9 2 2c0 1.08-.9 1.96-2 1.96s-2-.87-2-1.95zm2 6.2h-3.7c.17-1.96 1.75-3.5 3.7-3.5.66 0 1.32.2 1.9.54.15.1.3.2.45.33l.5-.55c-.2-.17-.37-.3-.57-.4-.24-.16-.5-.3-.75-.4.72-.48 1.2-1.3 1.2-2.23 0-1.5-1.22-2.72-2.74-2.72s-2.76 1.2-2.76 2.72c0 .93.5 1.75 1.22 2.24-1.72.64-2.94 2.33-2.94 4.33 0 .2.16.38.37.38h4.1v-.74zm0 6.72c.18-1.98 1.77-3.52 3.7-3.52.68 0 1.33.2 1.9.54 1.02.63 1.7 1.74 1.8 2.97h-7.4zm1.7-6.22c0-1.1.9-1.97 2-1.97 1.12 0 2.02.87 2.02 1.97 0 1.08-.9 1.96-2 1.96s-2-.87-2-1.95zm4.3 2.62c-.25-.15-.5-.28-.75-.38.73-.5 1.2-1.32 1.2-2.25 0-1.5-1.22-2.72-2.74-2.72-1.5 0-2.73 1.2-2.73 2.72 0 .93.48 1.75 1.2 2.24-1.7.65-2.94 2.33-2.94 4.33 0 .22.17.38.38.38h8.2c.22 0 .38-.15.38-.37 0-1.6-.84-3.13-2.18-3.96z" fill="#232f3e"/><g filter="url(#j)"><path d="m-1248.12-1537.48a6 6 0 0 1 6-6h187.12a6 6 0 0 1 6 6v108a6 6 0 0 1 -6 6h-187.12a6 6 0 0 1 -6-6z" fill="#e3fae3" stroke="#000"/><g transform="translate(-1203.7912 -1506.956)"><use transform="scale(.01085069)" xlink:href="#z"/><use transform="matrix(.01085069 0 0 .01085069 14.257813 0)" xlink:href="#o"/><use transform="matrix(.01085069 0 0 .01085069 27.213542 0)" xlink:href="#ac"/><use transform="matrix(.01085069 0 0 .01085069 32.595486 0)" xlink:href="#aj"/><use transform="matrix(.01085069 0 0 .01085069 40.190972 0)" xlink:href="#ay"/><use transform="matrix(.01085069 0 0 .01085069 50.412326 0)" xlink:href="#z"/><use transform="matrix(.01085069 0 0 .01085069 64.670139 0)" xlink:href="#o"/><use transform="matrix(.01085069 0 0 .01085069 77.625868 0)" xlink:href="#s"/><use transform="matrix(.01085069 0 0 .01085069 86.338976 0)" xlink:href="#n"/><use transform="matrix(.01085069 0 0 .01085069 98.394097 0)" xlink:href="#o"/></g><use transform="translate(-1204.0462 -1474.6903)" xlink:href="#H"/><g transform="translate(-1153.5362 -1474.6903)"><use transform="scale(.01085069)" xlink:href="#C"/><use transform="matrix(.01085069 0 0 .01085069 14.073351 0)" xlink:href="#w"/><use transform="matrix(.01085069 0 0 .01085069 27.398003 0)" xlink:href="#s"/><use transform="matrix(.01085069 0 0 .01085069 36.111111 0)" xlink:href="#q"/><use transform="matrix(.01085069 0 0 .01085069 43.489583 0)" xlink:href="#A"/><use transform="matrix(.01085069 0 0 .01085069 55.967882 0)" xlink:href="#ac"/></g><g transform="translate(-1233.3214 -1442.4247)"><use transform="scale(.01085069)" xlink:href="#ae"/><path d="m458 0-406-1490h194c108 439 233 855 324 1313 92-459 221-873 331-1313h216c110 438 234 854 330 1307 92-455 216-869 323-1307h196l-408 1490h-221l-256-944c-26-95-50-200-73-331-22 122-44 223-73 331l-255 944z" transform="matrix(.01085069 0 0 .01085069 8.105469 0)"/><use transform="matrix(.01085069 0 0 .01085069 30.00217 0)" xlink:href="#E"/><use transform="matrix(.01085069 0 0 .01085069 43.142361 0)" xlink:href="#t"/><use transform="matrix(.01085069 0 0 .01085069 48.524306 0)" xlink:href="#q"/><use transform="matrix(.01085069 0 0 .01085069 55.577257 0)" xlink:href="#o"/><use transform="matrix(.01085069 0 0 .01085069 68.532986 0)" xlink:href="#ay"/><use transform="matrix(.01085069 0 0 .01085069 78.75434 0)" xlink:href="#al"/><use transform="matrix(.01085069 0 0 .01085069 91.319444 0)" xlink:href="#A"/><use transform="matrix(.01085069 0 0 .01085069 103.79774 0)" xlink:href="#az"/><use transform="matrix(.01085069 0 0 .01085069 117.40451 0)" xlink:href="#o"/><use transform="matrix(.01085069 0 0 .01085069 130.36024 0)" xlink:href="#ac"/><use transform="matrix(.01085069 0 0 .01085069 135.74219 0)" xlink:href="#o"/><use transform="matrix(.01085069 0 0 .01085069 148.69792 0)" xlink:href="#v"/><use transform="matrix(.01085069 0 0 .01085069 162.30469 0)" xlink:href="#ah"/></g></g><g filter="url(#k)"><path d="m-1425.06-1371.07a6 6 0 0 1 6-6h106a6 6 0 0 1 6 6v80a6 6 0 0 1 -6 6h-106a6 6 0 0 1 -6-6z" fill="#e3fae3" stroke="#000"/><g transform="translate(-1419.9998 -1337.5073)"><use transform="scale(.00868056)" xlink:href="#I"/><use transform="matrix(.00868056 0 0 .00868056 12.265625 0)" xlink:href="#v"/><use transform="matrix(.00868056 0 0 .00868056 23.151042 0)" xlink:href="#v"/><use transform="matrix(.00868056 0 0 .00868056 34.036458 0)" xlink:href="#aA"/><use transform="matrix(.00868056 0 0 .00868056 40.442708 0)" xlink:href="#Z"/><use transform="matrix(.00868056 0 0 .00868056 51.623264 0)" xlink:href="#o"/><use transform="matrix(.00868056 0 0 .00868056 61.987847 0)" xlink:href="#B"/><use transform="matrix(.00868056 0 0 .00868056 77.560764 0)" xlink:href="#w"/><use transform="matrix(.00868056 0 0 .00868056 87.873264 0)" xlink:href="#n"/><use transform="matrix(.00868056 0 0 .00868056 97.517361 0)" xlink:href="#o"/></g><g transform="translate(-1407.7862 -1311.6948)"><use transform="scale(.00868056)" xlink:href="#m"/><use transform="matrix(.00868056 0 0 .00868056 10.685764 0)" xlink:href="#p"/><use transform="matrix(.00868056 0 0 .00868056 21.189236 0)" xlink:href="#v"/><use transform="matrix(.00868056 0 0 .00868056 32.074653 0)" xlink:href="#am"/><use transform="matrix(.00868056 0 0 .00868056 42.960069 0)" xlink:href="#w"/><use transform="matrix(.00868056 0 0 .00868056 53.619792 0)" xlink:href="#t"/><use transform="matrix(.00868056 0 0 .00868056 57.925347 0)" xlink:href="#p"/><use transform="matrix(.00868056 0 0 .00868056 68.428819 0)" xlink:href="#q"/><use transform="matrix(.00868056 0 0 .00868056 74.071181 0)" xlink:href="#D"/></g></g><path d="m-1148.55-1422.48v16.2a6 6 0 0 1 -6 6h-205.5a6 6 0 0 0 -6 6v.33" fill="none" stroke="#3a414a"/><path d="m-1148.08-1422.47h-.95v-.5h.95z" fill="#3a414a" stroke="#3a414a" stroke-width=".05"/><path d="m-1366.06-1379.2-4.64-14.25h9.27z" fill="#3a414a" stroke="#3a414a"/><g filter="url(#l)"><path d="m-964.73-1251.1c19.1 0 34.58 15.5 34.58 34.6s-15.48 34.57-34.58 34.57h-367.75c-19.1 0-34.58-15.48-34.58-34.58s15.48-34.6 34.58-34.6z" fill="#e3fae3" stroke="#000"/><use transform="translate(-1203.101 -1220.8081)" xlink:href="#aB"/><use transform="translate(-1104.045 -1220.8081)" xlink:href="#aD"/><g transform="translate(-1319.6475 -1188.5425)"><use transform="scale(.01085069)" xlink:href="#ae"/><use transform="matrix(.00976563 0 0 .00976563 8.105469 0)" xlink:href="#E"/><use transform="matrix(.00976563 0 0 .00976563 19.931641 0)" xlink:href="#q"/><use transform="matrix(.00976563 0 0 .00976563 25.986328 0)" xlink:href="#q"/><use transform="matrix(.00976563 0 0 .00976563 32.529297 0)" xlink:href="#am"/><use transform="matrix(.00976563 0 0 .00976563 44.775391 0)" xlink:href="#D"/><path d="m295 13c-75 0-135-60-135-135s60-135 135-135 135 60 135 135-60 135-135 135zm0-809c-75 0-135-60-135-135s60-135 135-135 135 60 135 135-60 135-135 135" transform="matrix(.00976563 0 0 .00976563 55.332031 0)"/><use transform="matrix(.00976563 0 0 .00976563 61.09375 0)" xlink:href="#aA"/><use transform="matrix(.00976563 0 0 .00976563 68.300781 0)" xlink:href="#aA"/><use transform="matrix(.00976563 0 0 .00976563 75.507812 0)" xlink:href="#w"/><use transform="matrix(.00976563 0 0 .00976563 87.5 0)" xlink:href="#s"/><use transform="matrix(.00976563 0 0 .00976563 94.697266 0)" xlink:href="#v"/><use transform="matrix(.00976563 0 0 .00976563 106.94336 0)" xlink:href="#o"/><use transform="matrix(.00976563 0 0 .00976563 118.60352 0)" xlink:href="#s"/><use transform="matrix(.00976563 0 0 .00976563 126.13281 0)" xlink:href="#D"/><use transform="matrix(.00976563 0 0 .00976563 136.68945 0)" xlink:href="#aE"/><use transform="matrix(.00976563 0 0 .00976563 142.45117 0)" xlink:href="#A"/><use transform="matrix(.00976563 0 0 .00976563 153.68164 0)" xlink:href="#Y"/><use transform="matrix(.00976563 0 0 .00976563 165.10742 0)" xlink:href="#B"/><use transform="matrix(.00976563 0 0 .00976563 182.62695 0)" xlink:href="#o"/><use transform="matrix(.00976563 0 0 .00976563 194.28711 0)" xlink:href="#aE"/><use transform="matrix(.00976563 0 0 .00976563 200.04883 0)" xlink:href="#Y"/><use transform="matrix(.00976563 0 0 .00976563 211.47461 0)" xlink:href="#w"/><use transform="matrix(.00976563 0 0 .00976563 223.4668 0)" xlink:href="#B"/><use transform="matrix(.00976563 0 0 .00976563 240.98633 0)" xlink:href="#aA"/><path d="m409 0-339-1118h191c89 329 165 560 243 925 75-353 154-601 240-925h192c85 325 161 564 235 922 77-354 157-598 244-922h191l-339 1118h-179c-86-307-176-590-250-913-75 325-163 605-250 913z" transform="matrix(.00976563 0 0 .00976563 248.19336 0)"/><use transform="matrix(.00976563 0 0 .00976563 264.19922 0)" xlink:href="#o"/><use transform="matrix(.00976563 0 0 .00976563 275.85937 0)" xlink:href="#az"/><use transform="matrix(.00976563 0 0 .00976563 288.10547 0)" xlink:href="#E"/><use transform="matrix(.00976563 0 0 .00976563 299.93164 0)" xlink:href="#w"/><use transform="matrix(.00976563 0 0 .00976563 311.92383 0)" xlink:href="#w"/><use transform="matrix(.00976563 0 0 .00976563 323.91602 0)" xlink:href="#aF"/><use transform="matrix(.00976563 0 0 .00976563 334.89258 0)" xlink:href="#ah"/></g></g><g filter="url(#l)"><path d="m-964.67-1167.9c19.1 0 34.57 15.47 34.57 34.57s-15.48 34.58-34.57 34.58h-367.76c-19.1 0-34.58-15.48-34.58-34.58s15.47-34.58 34.57-34.58z" fill="#e3fae3" stroke="#000"/><use transform="translate(-1205.3066 -1137.6289)" xlink:href="#aB"/><use transform="translate(-1106.2506 -1137.6289)" xlink:href="#aH"/><g transform="translate(-1341.4369 -1107.5161)"><use transform="scale(.00976563)" xlink:href="#ae"/><use transform="matrix(.00976563 0 0 .00976563 7.294922 0)" xlink:href="#aa"/><use transform="matrix(.00976563 0 0 .00976563 19.101562 0)" xlink:href="#J"/><use transform="matrix(.00976563 0 0 .00976563 24.472656 0)" xlink:href="#aa"/><path d="m784 20c-382 0-662-292-662-764 0-473 280-766 662-766s660 293 660 766c0 472-278 764-660 764zm0-176c266 0 475-207 475-588 0-383-209-590-475-590-268 0-477 208-477 590 0 380 209 588 477 588" transform="matrix(.00976563 0 0 .00976563 36.279297 0)"/><use transform="matrix(.00976563 0 0 .00976563 50.693359 0)" xlink:href="#ai"/></g><g transform="translate(-1279.3568 -1107.5161)"><use transform="scale(.00976563)" xlink:href="#C"/><use transform="matrix(.00976563 0 0 .00976563 12.666016 0)" xlink:href="#w"/><use transform="matrix(.00976563 0 0 .00976563 24.658203 0)" xlink:href="#ac"/><use transform="matrix(.00976563 0 0 .00976563 29.501953 0)" xlink:href="#ac"/><use transform="matrix(.00976563 0 0 .00976563 34.345703 0)" xlink:href="#t"/><use transform="matrix(.00976563 0 0 .00976563 39.189453 0)" xlink:href="#p"/><use transform="matrix(.00976563 0 0 .00976563 51.005859 0)" xlink:href="#u"/><use transform="matrix(.00976563 0 0 .00976563 63.271484 0)" xlink:href="#ai"/></g><g transform="translate(-1204.6986 -1107.5161)"><use transform="scale(.00976563)" xlink:href="#z"/><path d="m635 20c-292 0-500-160-510-396h192c11 142 145 229 315 229 187 0 323-105 323-260 0-161-125-274-346-274h-121v-165h121c174 0 294-100 294-254 0-148-104-245-266-245-152 0-291 85-297 230h-183c8-234 222-395 484-395 278 0 448 188 448 400 0 168-95 291-247 336v12c190 31 301 169 301 357 0 244-216 425-508 425" transform="matrix(.00976563 0 0 .00976563 12.832031 0)"/><use transform="matrix(.00976563 0 0 .00976563 24.736328 0)" xlink:href="#ai"/></g><g transform="translate(-1168.5756 -1107.5161)"><path d="m789 20c-398 0-667-293-667-764 0-473 273-766 655-766 315 0 558 198 612 487h-196c-61-191-204-311-415-311-262 0-471 207-471 590 0 380 208 588 482 588 249 0 420-165 425-427h-386v-166h572v163c0 370-256 606-611 606" transform="scale(.00976563)"/><use transform="matrix(.00976563 0 0 .00976563 14.921875 0)" xlink:href="#ad"/><use transform="matrix(.00976563 0 0 .00976563 29.53125 0)" xlink:href="#z"/><use transform="matrix(.00976563 0 0 .00976563 42.363281 0)" xlink:href="#ai"/></g><g transform="translate(-1114.8256 -1107.5161)"><use transform="scale(.00976563)" xlink:href="#I"/><use transform="matrix(.00976563 0 0 .00976563 13.798828 0)" xlink:href="#af"/><use transform="matrix(.00976563 0 0 .00976563 26.884766 0)" xlink:href="#z"/><use transform="matrix(.00976563 0 0 .00976563 39.716797 0)" xlink:href="#ai"/></g><g transform="translate(-1063.7221 -1107.5161)"><path d="m180 0v-1490h190c0 262 1 526-3 784 217-279 467-523 702-784h249l-602 645 603 845h-225l-509-716-215 227v489z" transform="scale(.00976563)"/><use transform="matrix(.00976563 0 0 .00976563 13.4375 0)" xlink:href="#A"/><use transform="matrix(.00976563 0 0 .00976563 24.667969 0)" xlink:href="#aj"/><use transform="matrix(.00976563 0 0 .00976563 32.070312 0)" xlink:href="#aF"/><use transform="matrix(.00976563 0 0 .00976563 43.046875 0)" xlink:href="#A"/><use transform="matrix(.00976563 0 0 .00976563 54.277344 0)" xlink:href="#ai"/></g><g transform="translate(-998.058 -1107.5161)"><use transform="scale(.00976563)" xlink:href="#o"/><use transform="matrix(.00976563 0 0 .00976563 11.660156 0)" xlink:href="#q"/><use transform="matrix(.00976563 0 0 .00976563 18.007812 0)" xlink:href="#Y"/><use transform="matrix(.00976563 0 0 .00976563 29.433594 0)" xlink:href="#aE"/><use transform="matrix(.00976563 0 0 .00976563 35.195312 0)" xlink:href="#ah"/></g></g><path d="m-1570.52-1174.92h82.1a6 6 0 0 0 6-6v-29.6a6 6 0 0 1 6-6h90.36" fill="none" stroke="#3a414a" stroke-width="2"/><path d="m-1570.5-1173.94h-1.02v-1.95h1.03z" fill="#3a414a" stroke="#3a414a" stroke-width=".05"/><path d="m-1370.8-1216.5-14.26 4.63v-9.27z" fill="#3a414a" stroke="#3a414a" stroke-width="2"/><path d="m-1570.52-1174.92h82.1a6 6 0 0 1 6 6v29.6a6 6 0 0 0 6 6h90.4" fill="none" stroke="#3a414a" stroke-width="2"/><path d="m-1570.5-1173.94h-1.02v-1.95h1.03z" fill="#3a414a" stroke="#3a414a" stroke-width=".05"/><path d="m-1370.74-1133.33-14.27 4.63v-9.26z" fill="#3a414a" stroke="#3a414a" stroke-width="2"/><g filter="url(#k)"><path d="m-1281.72-1371.07a6 6 0 0 1 6-6h106a6 6 0 0 1 6 6v80a6 6 0 0 1 -6 6h-106a6 6 0 0 1 -6-6z" fill="#e3fae3" stroke="#000"/><g transform="translate(-1240.5424 -1337.2209)"><use transform="scale(.00868056)" xlink:href="#r"/><use transform="matrix(.00868056 0 0 .00868056 10.086806 0)" xlink:href="#o"/><use transform="matrix(.00868056 0 0 .00868056 20.451389 0)" xlink:href="#D"/><use transform="matrix(.00868056 0 0 .00868056 29.835069 0)" xlink:href="#q"/></g><g transform="translate(-1257.1049 -1311.4084)"><path d="m645 0h-465v-1490h484c435 0 692 280 692 742 0 466-257 748-711 748zm-275-168h263c363 0 539-218 539-580 0-358-176-574-521-574h-281z" transform="scale(.00868056)"/><use transform="matrix(.00868056 0 0 .00868056 12.829861 0)" xlink:href="#o"/><use transform="matrix(.00868056 0 0 .00868056 23.194444 0)" xlink:href="#ac"/><use transform="matrix(.00868056 0 0 .00868056 27.5 0)" xlink:href="#t"/><use transform="matrix(.00868056 0 0 .00868056 31.805556 0)" xlink:href="#n"/><use transform="matrix(.00868056 0 0 .00868056 41.449653 0)" xlink:href="#o"/><use transform="matrix(.00868056 0 0 .00868056 51.814236 0)" xlink:href="#s"/><use transform="matrix(.00868056 0 0 .00868056 58.784722 0)" xlink:href="#ak"/></g></g><g filter="url(#k)"><path d="m-1138.38-1371.07a6 6 0 0 1 6-6h106a6 6 0 0 1 6 6v80a6 6 0 0 1 -6 6h-106a6 6 0 0 1 -6-6z" fill="#e3fae3" stroke="#000"/><g transform="translate(-1111.6363 -1337.2209)"><path d="m180 0v-1490h270l367 940c28 72 75 218 110 339 35-117 81-264 110-339l362-940h271v1490h-187c2-448-5-837 7-1287-157 497-311 829-483 1287h-165c-176-458-328-784-488-1284 12 438 5 843 7 1284z" transform="scale(.00868056)"/><use transform="matrix(.00868056 0 0 .00868056 16.059028 0)" xlink:href="#w"/><use transform="matrix(.00868056 0 0 .00868056 26.71875 0)" xlink:href="#p"/><use transform="matrix(.00868056 0 0 .00868056 37.222222 0)" xlink:href="#t"/><use transform="matrix(.00868056 0 0 .00868056 41.527778 0)" xlink:href="#q"/><use transform="matrix(.00868056 0 0 .00868056 47.170139 0)" xlink:href="#w"/><use transform="matrix(.00868056 0 0 .00868056 57.829861 0)" xlink:href="#s"/></g><g transform="translate(-1099.8742 -1311.4084)"><use transform="scale(.00868056)" xlink:href="#al"/><use transform="matrix(.00868056 0 0 .00868056 10.052083 0)" xlink:href="#w"/><use transform="matrix(.00868056 0 0 .00868056 20.711806 0)" xlink:href="#u"/><use transform="matrix(.00868056 0 0 .00868056 31.614583 0)" xlink:href="#D"/></g></g><g filter="url(#k)"><path d="m-995.03-1371.07a6 6 0 0 1 6-6h106a6 6 0 0 1 6 6v80a6 6 0 0 1 -6 6h-106a6 6 0 0 1 -6-6z" fill="#e3fae3" stroke="#000"/><g transform="translate(-964.25799 -1337.2209)"><use transform="scale(.00868056)" xlink:href="#Z"/><use transform="matrix(.00868056 0 0 .00868056 11.180556 0)" xlink:href="#o"/><use transform="matrix(.00868056 0 0 .00868056 21.545139 0)" xlink:href="#am"/><use transform="matrix(.00868056 0 0 .00868056 32.430556 0)" xlink:href="#ac"/><use transform="matrix(.00868056 0 0 .00868056 36.736111 0)" xlink:href="#A"/><use transform="matrix(.00868056 0 0 .00868056 46.458333 0)" xlink:href="#ak"/></g><g transform="translate(-968.68941 -1311.4084)"><use transform="scale(.00868056)" xlink:href="#aa"/><use transform="matrix(.00868056 0 0 .00868056 10.060764 0)" xlink:href="#A"/><use transform="matrix(.00868056 0 0 .00868056 20.043403 0)" xlink:href="#t"/><use transform="matrix(.00868056 0 0 .00868056 24.348958 0)" xlink:href="#ac"/><use transform="matrix(.00868056 0 0 .00868056 28.654514 0)" xlink:href="#x"/><use transform="matrix(.00868056 0 0 .00868056 39.166667 0)" xlink:href="#s"/><use transform="matrix(.00868056 0 0 .00868056 45.564236 0)" xlink:href="#o"/><use transform="matrix(.00868056 0 0 .00868056 55.928819 0)" xlink:href="#D"/></g></g><g stroke="#3a414a"><path d="m-1148.55-1422.48v16.2a6 6 0 0 1 -6 6h-62.17a6 6 0 0 0 -6 6v.33" fill="none"/><path d="m-1148.08-1422.47h-.95v-.5h.95z" fill="#3a414a" stroke-width=".05"/><path d="m-1222.72-1379.2-4.64-14.25h9.27z" fill="#3a414a"/><path d="m-1148.55-1422.48v16.2a6 6 0 0 0 6 6h57.17a6 6 0 0 1 6 6v.33" fill="none"/><path d="m-1148.08-1422.47h-.95v-.5h.95z" fill="#3a414a" stroke-width=".05"/><path d="m-1079.38-1379.2-4.63-14.25h9.26z" fill="#3a414a"/><path d="m-1148.55-1422.48v16.2a6 6 0 0 0 6 6h200.5a6 6 0 0 1 6 6v.33" fill="none"/><path d="m-1148.08-1422.47h-.95v-.5h.95z" fill="#3a414a" stroke-width=".05"/><path d="m-936.04-1379.2-4.63-14.25h9.27z" fill="#3a414a"/><path d="m-1366.06-1284.08v11.53a6 6 0 0 0 6 6h492.86a6 6 0 0 1 6 6v38.04a6 6 0 0 1 -6 6h-46.06" fill="none"/><path d="m-1365.6-1284.07h-.94v-.5h.95z" fill="#3a414a" stroke-width=".05"/><path d="m-928.03-1216.5 14.26-4.64v9.27z" fill="#3a414a"/><path d="m-1366.06-1284.08v11.53a6 6 0 0 0 6 6h492.86a6 6 0 0 1 6 6v121.22a6 6 0 0 1 -6 6h-46" fill="none"/><path d="m-1365.6-1284.07h-.94v-.5h.95z" fill="#3a414a" stroke-width=".05"/><path d="m-927.98-1133.33 14.27-4.63v9.27z" fill="#3a414a"/></g></g></svg>