<svg fill="none" viewBox="4 4 32 32" xmlns="http://www.w3.org/2000/svg"><g clip-rule="evenodd" fill="#495072" fill-rule="evenodd"><path d="m19.0596 17.9502c-1.2479 2.1415-2.4435 4.2154-3.664 6.2736-.3135.5283-.4686.9587-.2181 1.6304.6912 1.8555-.284 3.6611-2.1169 4.1513-1.7286.4623-3.4127-.6974-3.75566-2.5866-.30391-1.6722.96726-3.3115 2.77326-3.5728.1514-.0221.3058-.0247.5601-.0441.885-1.5149 1.7916-3.0665 2.7473-4.7027-1.7279-1.7539-2.7563-3.8042-2.5287-6.3447.1609-1.7959.8527-3.34781 2.1171-4.61984 2.4217-2.43583 6.1162-2.83033 8.9676-.96061 2.7386 1.79589 3.9928 5.29415 2.9237 8.28825-.8062-.2231-1.6179-.4481-2.5103-.6952.3358-1.6647.0874-3.1596-1.0124-4.4401-.7266-.84554-1.659-1.2887-2.7193-1.452-2.1255-.3278-4.2123 1.06624-4.8315 3.1959-.7029 2.417.3608 4.3914 3.2678 5.8792z"/><path d="m22.6234 15.4179c.8792 1.5832 1.7718 3.1904 2.6566 4.7828 4.4718-1.4123 7.8433 1.1147 9.0529 3.8202 1.4609 3.268.4622 7.1387-2.4071 9.1549-2.9451 2.0698-6.6696 1.7161-9.2789-.9426.665-.5683 1.3333-1.1391 2.0473-1.7489 2.5773 1.704 4.8313 1.6238 6.5048-.394 1.4269-1.7214 1.396-4.288-.0723-5.9733-1.6946-1.9447-3.9645-2.0041-6.7082-.1372-1.1382-2.0613-2.2962-4.1061-3.3983-6.1824-.3716-.6997-.782-1.1056-1.6195-1.2537-1.3988-.2476-2.3019-1.4738-2.3561-2.8477-.0533-1.3586.7308-2.5868 1.9564-3.0653 1.214-.474 2.6386-.0914 3.4552.9623.6674.8609.8794 1.8298.5283 2.8915-.0976.296-.2241.5825-.3611.9334z"/><path d="m24.7247 28.3608c-1.7683 0-3.5431 0-5.3833 0-.5159 2.1665-1.6304 3.9156-3.5508 5.0279-1.4927.8645-3.1018 1.1576-4.8143.8754-3.15295-.5191-5.73113-3.4166-5.95807-6.6794-.25693-3.696 2.23173-6.9814 5.54887-7.7193.229.849.4604 1.7061.6894 2.553-3.04345 1.5852-4.09676 3.5823-3.24504 6.0796.74987 2.1978 2.87974 3.4024 5.19244 2.9365 2.3617-.4757 3.5524-2.4793 3.4071-5.6949 2.2389 0 4.4797-.0237 6.7189.0117.8742.014 1.5492-.0786 2.208-.8655 1.0844-1.2948 3.0804-1.178 4.2483.0449 1.1935 1.2497 1.1363 3.2607-.1267 4.4577-1.2186 1.155-3.1439 1.0933-4.2839-.1512-.2344-.2566-.419-.5611-.6509-.8764z"/></g></svg>