<?xml version="1.0" encoding="UTF-8"?>
<svg version="1.1"
    xmlns="http://www.w3.org/2000/svg" width="256" height="256" viewBox="0 0 256 256">
    <path d="M0 0 C1.06906586 -0.01283524 2.13813171 -0.02567047 3.23959351 -0.03889465 C4.95525009 -0.04997505 4.95525009 -0.04997505 6.70556641 -0.0612793 C7.90210846 -0.06935104 9.09865051 -0.07742279 10.33145142 -0.08573914 C12.86483322 -0.09955151 15.39823341 -0.11028635 17.93164062 -0.11816406 C20.49745213 -0.12964023 23.06324058 -0.15002189 25.62890625 -0.1796875 C39.78543391 -0.34319366 52.93144653 -0.45546167 66.43212891 4.17700195 C67.59687744 4.55526123 68.76162598 4.93352051 69.96166992 5.32324219 C82.97169733 9.69959418 93.66762937 17.70321431 103.43212891 27.17700195 C104.11662109 27.78801758 104.80111328 28.3990332 105.50634766 29.02856445 C120.43331441 42.8118147 130.35808678 65.32175214 131.57250977 85.51074219 C132.54729675 111.9029174 126.88199782 136.14533195 108.99462891 156.36450195 C107.48058534 157.9750785 105.96007257 159.5796063 104.43212891 161.17700195 C103.51173828 162.20954102 103.51173828 162.20954102 102.57275391 163.26293945 C89.14780502 177.77794829 66.56140048 188.40968511 46.88999939 189.2908783 C43.73060649 189.35922423 40.57266722 189.39441795 37.41259766 189.4152832 C36.24062332 189.42335495 35.06864899 189.4314267 33.86116028 189.43974304 C31.37905339 189.45355536 28.89692774 189.46429022 26.41479492 189.47216797 C23.90432068 189.48363427 21.39386977 189.50399992 18.88354492 189.53369141 C-12.93899444 189.90960605 -37.89300924 182.88804799 -61.56787109 160.61450195 C-79.45356453 142.2507318 -87.84264887 117.55441832 -87.88476562 92.22119141 C-87.52259244 67.49281119 -76.93119524 44.56902581 -59.56787109 27.17700195 C-58.73642578 26.33395508 -57.90498047 25.4909082 -57.04833984 24.62231445 C-42.26957689 10.38450183 -20.7162203 0.21852081 0 0 Z M-40.56787109 28.17700195 C-41.48439453 28.83442383 -42.40091797 29.4918457 -43.34521484 30.16918945 C-60.90884935 43.6190414 -71.06457824 63.84426017 -74.31787109 85.48950195 C-75.76722576 106.86748321 -70.89287672 128.78785824 -56.88818359 145.47387695 C-54.23046946 148.49794847 -51.43127409 151.34743533 -48.56787109 154.17700195 C-47.58367188 155.17666992 -47.58367188 155.17666992 -46.57958984 156.1965332 C-42.57868241 159.99182655 -38.12558973 162.79271106 -33.38037109 165.55200195 C-32.78571045 165.8984375 -32.1910498 166.24487305 -31.57836914 166.60180664 C-28.26846856 168.45286309 -25.33538987 169.68034223 -21.56787109 170.17700195 C-22.55787109 169.18700195 -22.55787109 169.18700195 -23.56787109 168.17700195 C-24.02806641 167.71165039 -24.48826172 167.24629883 -24.96240234 166.7668457 C-26.06441523 165.675558 -27.18832334 164.60607582 -28.32958984 163.5559082 C-46.16006217 146.7381199 -55.96638048 123.49502096 -57.56787109 99.17700195 C-57.97730943 80.39344315 -52.22745031 64.0713854 -40.05224609 49.7512207 C-28.22896628 37.50036945 -11.81989557 30.36151619 5.14233398 29.7019043 C23.65679969 29.50055282 41.06040067 36.14931475 54.43212891 49.17700195 C68.80323024 65.83616772 72.8742769 83.73001201 71.43212891 105.17700195 C69.68706528 119.37333039 62.53026726 130.89767419 52.68994141 140.84887695 C50.41440519 142.96107697 50.41440519 142.96107697 49.43212891 145.17700195 C56.80760492 143.42166946 62.4208449 140.78347502 68.43212891 136.17700195 C69.12306641 135.66266602 69.81400391 135.14833008 70.52587891 134.6184082 C79.94682338 127.06353542 86.64069155 115.14782166 88.43212891 103.17700195 C90.06237087 79.85548493 84.43398368 58.6195927 69.05957031 40.56518555 C55.19883747 24.99866297 35.42572486 14.37162598 14.42919922 13.05102539 C-5.64575058 12.31028693 -24.01056688 16.27116748 -40.56787109 28.17700195 Z M64.43212891 18.17700195 C66.90952515 20.67663694 69.39889694 23.14606713 71.97509766 25.54418945 C88.34005357 41.0630989 100.45313434 63.25221253 101.43212891 86.17700195 C101.48369141 87.27270508 101.53525391 88.3684082 101.58837891 89.49731445 C102.05171993 108.30123757 96.49906789 126.27354811 83.43212891 140.17700195 C71.04354167 152.6954486 54.59312331 159.15158725 37.05712891 159.48950195 C19.67754351 159.50769624 4.17423076 153.49597379 -8.43115234 141.3371582 C-9.13626953 140.62430664 -9.84138672 139.91145508 -10.56787109 139.17700195 C-11.11830078 138.66008789 -11.66873047 138.14317383 -12.23583984 137.6105957 C-23.78345987 125.75338801 -28.09003444 108.15558799 -27.91552734 92.17260742 C-27.42183663 75.85807809 -20.94483132 60.72929096 -9.45068359 49.0949707 C-7.39537667 47.12088483 -7.39537667 47.12088483 -5.56787109 44.17700195 C-16.54857084 46.33348249 -26.98993528 53.07892846 -34.00927734 61.8137207 C-44.31946634 77.44696467 -47.3062025 94.10524877 -43.54003906 112.47705078 C-38.42652083 133.59477062 -25.26064485 152.55220887 -6.86669922 164.07055664 C12.55988 175.8331517 34.82159448 179.1614907 56.93603516 174.15356445 C62.35437578 172.64006149 67.37347816 170.62608666 72.43212891 168.17700195 C73.35638672 167.73485352 74.28064453 167.29270508 75.23291016 166.8371582 C94.02184007 157.24337645 107.59824821 140.42696569 114.30712891 120.55200195 C121.47852337 97.17856814 118.65987703 75.35122226 107.80712891 53.67700195 C98.33113895 37.11210349 83.88004601 25.5260549 66.43212891 18.17700195 C65.77212891 18.17700195 65.11212891 18.17700195 64.43212891 18.17700195 Z M12.49462891 48.36450195 C11.89972656 48.65647461 11.30482422 48.94844727 10.69189453 49.24926758 C-2.07382233 55.73676303 -9.35991241 66.82354471 -13.69287109 80.0480957 C-17.56867484 93.90755462 -15.92898892 108.02379325 -9.14599609 120.73168945 C-6.15243887 125.37022119 -2.45708334 129.2810376 1.43212891 133.17700195 C2.00962891 133.76610352 2.58712891 134.35520508 3.18212891 134.9621582 C8.18829309 139.66747117 14.65240437 143.50054187 21.52978516 144.47387695 C31.73022443 143.88740406 40.32591658 136.10946056 46.98291016 129.1105957 C56.82922957 117.31699781 60.36514012 103.27481983 59.43212891 88.17700195 C57.36110789 74.96812777 51.79326994 65.55439496 42.43212891 56.17700195 C41.85462891 55.58790039 41.27712891 54.99879883 40.68212891 54.3918457 C35.64459362 49.65704691 28.93699585 45.79962584 22.02978516 44.8449707 C18.48746937 45.29774791 15.62212277 46.73847447 12.49462891 48.36450195 Z " fill="#FC5200" transform="translate(104.56787109375,32.822998046875)"/>
</svg>
